<svg width="339" height="338" viewBox="0 0 339 338" fill="none" xmlns="http://www.w3.org/2000/svg">
<path d="M79.977 47.5625L76.7988 47.5625C76.7988 68.043 95.0618 84.6457 117.59 84.6457C140.119 84.6457 158.382 68.043 158.382 47.5625L155.204 47.5625C153.195 65.0707 137.121 78.7124 117.59 78.7124C98.0595 78.7124 81.986 65.0707 79.977 47.5625Z" fill="url(#paint0_linear_30_12946)"/>
<path d="M192.206 19.8801L189.959 17.6328C175.477 32.1147 176.651 56.7685 192.581 72.6985C208.511 88.6286 233.165 89.8026 247.647 75.3207L245.4 73.0734C231.599 84.033 210.587 82.3135 196.777 68.5031C182.966 54.6927 181.247 33.6809 192.206 19.8801Z" fill="url(#paint1_linear_30_12946)"/>
<path d="M291.139 79.6664L291.139 76.4883C270.658 76.4883 254.055 94.7513 254.055 117.28C254.055 139.808 270.658 158.071 291.139 158.071L291.139 154.893C273.63 152.884 259.989 136.811 259.989 117.28C259.989 97.7489 273.63 81.6754 291.139 79.6664Z" fill="url(#paint2_linear_30_12946)"/>
<path d="M318.821 191.896L321.068 189.648C306.586 175.167 281.933 176.341 266.003 192.271C250.073 208.201 248.899 232.854 263.38 247.336L265.628 245.089C254.668 231.288 256.388 210.276 270.198 196.466C284.009 182.656 305.02 180.936 318.821 191.896Z" fill="url(#paint3_linear_30_12946)"/>
<path d="M47.873 183.502L47.873 180.324C68.3535 180.324 84.9562 198.587 84.9562 221.116C84.9563 243.644 68.3535 261.907 47.8731 261.907L47.8731 258.729C65.3812 256.72 79.0229 240.647 79.0229 221.116C79.0229 201.585 65.3812 185.511 47.873 183.502Z" fill="url(#paint4_linear_30_12946)"/>
<path d="M73.3855 93.302L75.6328 91.0547C90.1147 105.537 88.9407 130.19 73.0106 146.12C57.0806 162.051 32.4268 163.225 17.9449 148.743L20.1922 146.495C33.993 157.455 55.0048 155.735 68.8152 141.925C82.6256 128.115 84.3451 107.103 73.3855 93.302Z" fill="url(#paint5_linear_30_12946)"/>
<path d="M259.037 290.832L262.215 290.832C262.215 270.352 243.952 253.749 221.423 253.749C198.895 253.749 180.632 270.352 180.632 290.832L183.81 290.832C185.819 273.324 201.892 259.682 221.423 259.682C240.954 259.682 257.028 273.324 259.037 290.832Z" fill="url(#paint6_linear_30_12946)"/>
<path d="M146.807 318.514L149.055 320.762C163.537 306.28 162.363 281.626 146.433 265.696C130.502 249.766 105.849 248.592 91.3668 263.074L93.6141 265.321C107.415 254.362 128.427 256.081 142.237 269.891C156.047 283.702 157.767 304.714 146.807 318.514Z" fill="url(#paint7_linear_30_12946)"/>
<rect width="58.5399" height="58.5376" transform="matrix(1 0 0 -1 140.141 198.375)" fill="url(#paint8_linear_30_12946)"/>
<rect width="58.5399" height="58.5376" transform="matrix(0.866025 0.5 0.5 -0.866025 129.428 179.82)" fill="url(#paint9_linear_30_12946)"/>
<rect width="58.5399" height="58.5376" transform="matrix(0.707107 0.707107 0.707107 -0.707107 128.016 169.102)" fill="url(#paint10_linear_30_12946)"/>
<rect width="58.5399" height="58.5376" transform="matrix(0.5 0.866025 0.866025 -0.5 129.428 158.398)" fill="url(#paint11_linear_30_12946)"/>
<rect width="58.5399" height="58.5376" transform="matrix(0.258819 0.965926 0.965926 -0.258819 133.561 148.41)" fill="url(#paint12_linear_30_12946)"/>
<rect width="58.5399" height="58.5376" transform="matrix(-4.37114e-08 1 1 4.37114e-08 140.141 139.84)" fill="url(#paint13_linear_30_12946)"/>
<rect width="58.5399" height="58.5376" transform="matrix(-0.258819 0.965926 0.965926 0.258819 148.713 133.262)" fill="url(#paint14_linear_30_12946)"/>
<circle cx="169.337" cy="96.0006" r="18.8483" fill="url(#paint15_linear_30_12946)"/>
<circle cx="220.984" cy="117.386" r="18.8483" transform="rotate(45 220.984 117.386)" fill="url(#paint16_linear_30_12946)"/>
<circle cx="242.376" cy="169.04" r="18.8483" transform="rotate(90 242.376 169.04)" fill="url(#paint17_linear_30_12946)"/>
<circle cx="220.985" cy="220.68" r="18.8483" transform="rotate(135 220.985 220.68)" fill="url(#paint18_linear_30_12946)"/>
<circle cx="18.8483" cy="18.8483" r="18.8483" transform="matrix(-1 0 0 1 188.188 223.223)" fill="url(#paint19_linear_30_12946)"/>
<circle cx="18.8483" cy="18.8483" r="18.8483" transform="matrix(-0.707107 -0.707107 -0.707107 0.707107 144.352 220.68)" fill="url(#paint20_linear_30_12946)"/>
<circle cx="18.8483" cy="18.8483" r="18.8483" transform="matrix(4.37114e-08 -1 -1 -4.37114e-08 115.152 187.879)" fill="url(#paint21_linear_30_12946)"/>
<circle cx="18.8483" cy="18.8483" r="18.8483" transform="matrix(0.707107 -0.707107 -0.707107 -0.707107 117.695 144.043)" fill="url(#paint22_linear_30_12946)"/>
<path d="M97.9143 55.4944C87.0572 44.6373 86.0008 28.091 95.5546 18.5372L134.871 57.8541C125.318 67.4079 108.771 66.3514 97.9143 55.4944Z" fill="url(#paint23_radial_30_12946)"/>
<path d="M240.763 282.584C251.62 293.441 252.677 309.987 243.123 319.541L203.806 280.224C213.36 270.67 229.906 271.727 240.763 282.584Z" fill="url(#paint24_radial_30_12946)"/>
<path d="M282.875 97.5959C293.732 86.7389 310.278 85.6824 319.832 95.2362L280.515 134.553C270.961 124.999 272.018 108.453 282.875 97.5959Z" fill="url(#paint25_radial_30_12946)"/>
<path d="M55.803 240.478C44.9459 251.335 28.3996 252.392 18.8458 242.838L58.1627 203.521C67.7165 213.075 66.66 229.621 55.803 240.478Z" fill="url(#paint26_radial_30_12946)"/>
<path d="M199.118 38.2505C199.118 22.8963 210.071 10.4492 223.582 10.4492L223.582 66.0517C210.071 66.0517 199.118 53.6046 199.118 38.2505Z" fill="url(#paint27_radial_30_12946)"/>
<path d="M139.564 299.82C139.564 315.174 128.611 327.621 115.1 327.621L115.1 272.019C128.611 272.019 139.564 284.466 139.564 299.82Z" fill="url(#paint28_radial_30_12946)"/>
<path d="M300.132 198.812C315.487 198.812 327.934 209.765 327.934 223.277L272.331 223.277C272.331 209.765 284.778 198.812 300.132 198.812Z" fill="url(#paint29_radial_30_12946)"/>
<path d="M38.5415 139.262C23.1873 139.262 10.7402 128.309 10.7402 114.798L66.3427 114.798C66.3427 128.309 53.8957 139.262 38.5415 139.262Z" fill="url(#paint30_radial_30_12946)"/>
<path d="M145.307 0.339846C129.953 0.339845 117.506 11.2928 117.506 24.804L173.108 24.804C173.108 11.2928 160.661 0.339847 145.307 0.339846Z" fill="url(#paint31_radial_30_12946)"/>
<path d="M193.373 337.719C208.727 337.719 221.174 326.766 221.174 313.255L165.571 313.255C165.571 326.766 178.018 337.719 193.373 337.719Z" fill="url(#paint32_radial_30_12946)"/>
<path d="M338.031 145.004C338.031 129.65 327.078 117.203 313.567 117.203L313.567 172.806C327.078 172.806 338.031 160.359 338.031 145.004Z" fill="url(#paint33_radial_30_12946)"/>
<path d="M0.64649 193.058C0.646487 208.412 11.5994 220.859 25.1106 220.859L25.1106 165.257C11.5995 165.257 0.646493 177.704 0.64649 193.058Z" fill="url(#paint34_radial_30_12946)"/>
<path d="M271.627 32.7483C260.77 21.8912 244.224 20.8348 234.67 30.3886L273.987 69.7055C283.541 60.1516 282.484 43.6053 271.627 32.7483Z" fill="url(#paint35_radial_30_12946)"/>
<path d="M67.0505 305.314C77.9076 316.171 94.4539 317.228 104.008 307.674L64.6909 268.357C55.137 277.911 56.1935 294.457 67.0505 305.314Z" fill="url(#paint36_radial_30_12946)"/>
<path d="M305.615 271.319C316.472 260.462 317.529 243.915 307.975 234.361L268.658 273.678C278.212 283.232 294.758 282.176 305.615 271.319Z" fill="url(#paint37_radial_30_12946)"/>
<path d="M33.0647 66.7478C22.2076 77.6049 21.1512 94.1512 30.705 103.705L70.0219 64.3881C60.468 54.8343 43.9218 55.8908 33.0647 66.7478Z" fill="url(#paint38_radial_30_12946)"/>
<defs>
<linearGradient id="paint0_linear_30_12946" x1="158.382" y1="47.5625" x2="76.7988" y2="47.5625" gradientUnits="userSpaceOnUse">
<stop stop-color="#A442E4"/>
<stop offset="1" stop-color="#E542D1"/>
</linearGradient>
<linearGradient id="paint1_linear_30_12946" x1="247.647" y1="75.3207" x2="189.959" y2="17.6328" gradientUnits="userSpaceOnUse">
<stop stop-color="#A442E4"/>
<stop offset="1" stop-color="#E542D1"/>
</linearGradient>
<linearGradient id="paint2_linear_30_12946" x1="291.139" y1="158.071" x2="291.139" y2="76.4883" gradientUnits="userSpaceOnUse">
<stop stop-color="#A442E4"/>
<stop offset="1" stop-color="#E542D1"/>
</linearGradient>
<linearGradient id="paint3_linear_30_12946" x1="263.38" y1="247.336" x2="321.068" y2="189.648" gradientUnits="userSpaceOnUse">
<stop stop-color="#A442E4"/>
<stop offset="1" stop-color="#E542D1"/>
</linearGradient>
<linearGradient id="paint4_linear_30_12946" x1="47.8731" y1="261.907" x2="47.8731" y2="180.324" gradientUnits="userSpaceOnUse">
<stop stop-color="#A442E4"/>
<stop offset="1" stop-color="#E542D1"/>
</linearGradient>
<linearGradient id="paint5_linear_30_12946" x1="17.9449" y1="148.743" x2="75.6328" y2="91.0547" gradientUnits="userSpaceOnUse">
<stop stop-color="#A442E4"/>
<stop offset="1" stop-color="#E542D1"/>
</linearGradient>
<linearGradient id="paint6_linear_30_12946" x1="180.632" y1="290.832" x2="262.215" y2="290.832" gradientUnits="userSpaceOnUse">
<stop stop-color="#A442E4"/>
<stop offset="1" stop-color="#E542D1"/>
</linearGradient>
<linearGradient id="paint7_linear_30_12946" x1="91.3668" y1="263.074" x2="149.055" y2="320.762" gradientUnits="userSpaceOnUse">
<stop stop-color="#A442E4"/>
<stop offset="1" stop-color="#E542D1"/>
</linearGradient>
<linearGradient id="paint8_linear_30_12946" x1="58.5376" y1="0" x2="58.5376" y2="58.5376" gradientUnits="userSpaceOnUse">
<stop stop-color="#FFB800"/>
<stop offset="1" stop-color="#FFF500"/>
</linearGradient>
<linearGradient id="paint9_linear_30_12946" x1="58.5376" y1="0" x2="58.5376" y2="58.5376" gradientUnits="userSpaceOnUse">
<stop stop-color="#FFB800"/>
<stop offset="1" stop-color="#FFF500"/>
</linearGradient>
<linearGradient id="paint10_linear_30_12946" x1="58.5376" y1="0" x2="58.5376" y2="58.5376" gradientUnits="userSpaceOnUse">
<stop stop-color="#FFB800"/>
<stop offset="1" stop-color="#FFF500"/>
</linearGradient>
<linearGradient id="paint11_linear_30_12946" x1="58.5376" y1="0" x2="58.5376" y2="58.5376" gradientUnits="userSpaceOnUse">
<stop stop-color="#FFB800"/>
<stop offset="1" stop-color="#FFF500"/>
</linearGradient>
<linearGradient id="paint12_linear_30_12946" x1="58.5376" y1="0" x2="58.5376" y2="58.5376" gradientUnits="userSpaceOnUse">
<stop stop-color="#FFB800"/>
<stop offset="1" stop-color="#FFF500"/>
</linearGradient>
<linearGradient id="paint13_linear_30_12946" x1="58.5376" y1="0" x2="58.5376" y2="58.5376" gradientUnits="userSpaceOnUse">
<stop stop-color="#FFB800"/>
<stop offset="1" stop-color="#FFF500"/>
</linearGradient>
<linearGradient id="paint14_linear_30_12946" x1="58.5376" y1="0" x2="58.5376" y2="58.5376" gradientUnits="userSpaceOnUse">
<stop stop-color="#FFB800"/>
<stop offset="1" stop-color="#FFF500"/>
</linearGradient>
<linearGradient id="paint15_linear_30_12946" x1="150.488" y1="96.0006" x2="188.185" y2="96.0006" gradientUnits="userSpaceOnUse">
<stop stop-color="#015F2A"/>
<stop offset="1" stop-color="#00FF38"/>
</linearGradient>
<linearGradient id="paint16_linear_30_12946" x1="202.136" y1="117.386" x2="239.833" y2="117.386" gradientUnits="userSpaceOnUse">
<stop stop-color="#015F2A"/>
<stop offset="1" stop-color="#00FF38"/>
</linearGradient>
<linearGradient id="paint17_linear_30_12946" x1="223.528" y1="169.04" x2="261.225" y2="169.04" gradientUnits="userSpaceOnUse">
<stop stop-color="#015F2A"/>
<stop offset="1" stop-color="#00FF38"/>
</linearGradient>
<linearGradient id="paint18_linear_30_12946" x1="202.137" y1="220.68" x2="239.833" y2="220.68" gradientUnits="userSpaceOnUse">
<stop stop-color="#015F2A"/>
<stop offset="1" stop-color="#00FF38"/>
</linearGradient>
<linearGradient id="paint19_linear_30_12946" x1="0" y1="18.8483" x2="37.6966" y2="18.8483" gradientUnits="userSpaceOnUse">
<stop stop-color="#015F2A"/>
<stop offset="1" stop-color="#00FF38"/>
</linearGradient>
<linearGradient id="paint20_linear_30_12946" x1="0" y1="18.8483" x2="37.6966" y2="18.8483" gradientUnits="userSpaceOnUse">
<stop stop-color="#015F2A"/>
<stop offset="1" stop-color="#00FF38"/>
</linearGradient>
<linearGradient id="paint21_linear_30_12946" x1="0" y1="18.8483" x2="37.6966" y2="18.8483" gradientUnits="userSpaceOnUse">
<stop stop-color="#015F2A"/>
<stop offset="1" stop-color="#00FF38"/>
</linearGradient>
<linearGradient id="paint22_linear_30_12946" x1="0" y1="18.8483" x2="37.6966" y2="18.8483" gradientUnits="userSpaceOnUse">
<stop stop-color="#015F2A"/>
<stop offset="1" stop-color="#00FF38"/>
</linearGradient>
<radialGradient id="paint23_radial_30_12946" cx="0" cy="0" r="1" gradientUnits="userSpaceOnUse" gradientTransform="translate(115.214 38.195) rotate(135) scale(20.0169 25.5947)">
<stop offset="0.0579998" stop-color="#FFADD0"/>
<stop offset="1" stop-color="#FF4242"/>
</radialGradient>
<radialGradient id="paint24_radial_30_12946" cx="0" cy="0" r="1" gradientUnits="userSpaceOnUse" gradientTransform="translate(223.464 299.883) rotate(-45) scale(20.0169 25.5947)">
<stop offset="0.0579998" stop-color="#FFADD0"/>
<stop offset="1" stop-color="#FF4242"/>
</radialGradient>
<radialGradient id="paint25_radial_30_12946" cx="0" cy="0" r="1" gradientUnits="userSpaceOnUse" gradientTransform="translate(300.174 114.895) rotate(-135) scale(20.0169 25.5947)">
<stop offset="0.0579998" stop-color="#FFADD0"/>
<stop offset="1" stop-color="#FF4242"/>
</radialGradient>
<radialGradient id="paint26_radial_30_12946" cx="0" cy="0" r="1" gradientUnits="userSpaceOnUse" gradientTransform="translate(38.5036 223.179) rotate(45) scale(20.0169 25.5947)">
<stop offset="0.0579998" stop-color="#FFADD0"/>
<stop offset="1" stop-color="#FF4242"/>
</radialGradient>
<radialGradient id="paint27_radial_30_12946" cx="0" cy="0" r="1" gradientUnits="userSpaceOnUse" gradientTransform="translate(223.583 38.2504) rotate(180) scale(20.0169 25.5947)">
<stop offset="0.0579998" stop-color="#FFADD0"/>
<stop offset="1" stop-color="#FF4242"/>
</radialGradient>
<radialGradient id="paint28_radial_30_12946" cx="0" cy="0" r="1" gradientUnits="userSpaceOnUse" gradientTransform="translate(115.099 299.82) scale(20.0169 25.5947)">
<stop offset="0.0579998" stop-color="#FFADD0"/>
<stop offset="1" stop-color="#FF4242"/>
</radialGradient>
<radialGradient id="paint29_radial_30_12946" cx="0" cy="0" r="1" gradientUnits="userSpaceOnUse" gradientTransform="translate(300.132 223.278) rotate(-90) scale(20.0169 25.5947)">
<stop offset="0.0579998" stop-color="#FFADD0"/>
<stop offset="1" stop-color="#FF4242"/>
</radialGradient>
<radialGradient id="paint30_radial_30_12946" cx="0" cy="0" r="1" gradientUnits="userSpaceOnUse" gradientTransform="translate(38.5415 114.797) rotate(90) scale(20.0169 25.5947)">
<stop offset="0.0579998" stop-color="#FFADD0"/>
<stop offset="1" stop-color="#FF4242"/>
</radialGradient>
<radialGradient id="paint31_radial_30_12946" cx="0" cy="0" r="1" gradientUnits="userSpaceOnUse" gradientTransform="translate(145.307 24.8049) rotate(-90) scale(20.0169 25.5947)">
<stop offset="0.0579998" stop-color="#FFADD0"/>
<stop offset="1" stop-color="#FF4242"/>
</radialGradient>
<radialGradient id="paint32_radial_30_12946" cx="0" cy="0" r="1" gradientUnits="userSpaceOnUse" gradientTransform="translate(193.373 313.254) rotate(90) scale(20.0169 25.5947)">
<stop offset="0.0579998" stop-color="#FFADD0"/>
<stop offset="1" stop-color="#FF4242"/>
</radialGradient>
<radialGradient id="paint33_radial_30_12946" cx="0" cy="0" r="1" gradientUnits="userSpaceOnUse" gradientTransform="translate(313.566 145.004) scale(20.0169 25.5947)">
<stop offset="0.0579998" stop-color="#FFADD0"/>
<stop offset="1" stop-color="#FF4242"/>
</radialGradient>
<radialGradient id="paint34_radial_30_12946" cx="0" cy="0" r="1" gradientUnits="userSpaceOnUse" gradientTransform="translate(25.1116 193.058) rotate(-180) scale(20.0169 25.5947)">
<stop offset="0.0579998" stop-color="#FFADD0"/>
<stop offset="1" stop-color="#FF4242"/>
</radialGradient>
<radialGradient id="paint35_radial_30_12946" cx="0" cy="0" r="1" gradientUnits="userSpaceOnUse" gradientTransform="translate(254.328 50.0477) rotate(-45) scale(20.0169 25.5947)">
<stop offset="0.0579998" stop-color="#FFADD0"/>
<stop offset="1" stop-color="#FF4242"/>
</radialGradient>
<radialGradient id="paint36_radial_30_12946" cx="0" cy="0" r="1" gradientUnits="userSpaceOnUse" gradientTransform="translate(84.35 288.015) rotate(135) scale(20.0169 25.5947)">
<stop offset="0.0579998" stop-color="#FFADD0"/>
<stop offset="1" stop-color="#FF4242"/>
</radialGradient>
<radialGradient id="paint37_radial_30_12946" cx="0" cy="0" r="1" gradientUnits="userSpaceOnUse" gradientTransform="translate(288.316 254.019) rotate(45) scale(20.0169 25.5947)">
<stop offset="0.0579998" stop-color="#FFADD0"/>
<stop offset="1" stop-color="#FF4242"/>
</radialGradient>
<radialGradient id="paint38_radial_30_12946" cx="0" cy="0" r="1" gradientUnits="userSpaceOnUse" gradientTransform="translate(50.3641 84.0472) rotate(-135) scale(20.0169 25.5947)">
<stop offset="0.0579998" stop-color="#FFADD0"/>
<stop offset="1" stop-color="#FF4242"/>
</radialGradient>
</defs>
</svg>
