<svg width="110" height="110" viewBox="0 0 110 110" fill="none" xmlns="http://www.w3.org/2000/svg">
<path d="M15 0C6.49481 0 0 6.49481 0 15V34C0 40.0255 3.958 45.47 9 48L0 110H110L101 48C106.042 45.47 110 40.0255 110 34V15C110 6.49481 103.505 0 95 0L15 0Z" fill="url(#paint0_linear_24_3206)"/>
<rect width="78.0031" height="78" transform="matrix(1 0 0 -1 16 94)" fill="url(#paint1_linear_24_3206)"/>
<path d="M69 16C82.8071 16 94 25.8493 94 37.9991L44 37.9991C44 25.8493 55.1929 16 69 16Z" fill="url(#paint2_radial_24_3206)"/>
<path d="M41 94C27.1929 94 16 84.1507 16 72.0009L66 72.0009C66 84.1507 54.8071 94 41 94Z" fill="url(#paint3_radial_24_3206)"/>
<path d="M93.999 69C93.999 82.8071 84.1497 94 71.9999 94L71.9999 44C84.1497 44 93.999 55.1929 93.999 69Z" fill="url(#paint4_radial_24_3206)"/>
<path d="M16.001 41C16.001 27.1929 25.8503 16 38.0001 16L38.0001 66C25.8503 66 16.001 54.8071 16.001 41Z" fill="url(#paint5_radial_24_3206)"/>
<defs>
<linearGradient id="paint0_linear_24_3206" x1="55" y1="0" x2="55" y2="110" gradientUnits="userSpaceOnUse">
<stop stop-color="#FFD363"/>
<stop offset="1" stop-color="#FFE298"/>
</linearGradient>
<linearGradient id="paint1_linear_24_3206" x1="78" y1="0" x2="78" y2="78" gradientUnits="userSpaceOnUse">
<stop stop-color="#FFB800"/>
<stop offset="1" stop-color="#FFF500"/>
</linearGradient>
<radialGradient id="paint2_radial_24_3206" cx="0" cy="0" r="1" gradientUnits="userSpaceOnUse" gradientTransform="translate(69 38) rotate(-90) scale(18 23.0158)">
<stop offset="0.0579998" stop-color="#FFADD0"/>
<stop offset="1" stop-color="#FF4242"/>
</radialGradient>
<radialGradient id="paint3_radial_24_3206" cx="0" cy="0" r="1" gradientUnits="userSpaceOnUse" gradientTransform="translate(41 72) rotate(90) scale(18 23.0158)">
<stop offset="0.0579998" stop-color="#FFADD0"/>
<stop offset="1" stop-color="#FF4242"/>
</radialGradient>
<radialGradient id="paint4_radial_24_3206" cx="0" cy="0" r="1" gradientUnits="userSpaceOnUse" gradientTransform="translate(71.999 69) scale(18 23.0158)">
<stop offset="0.0579998" stop-color="#FFADD0"/>
<stop offset="1" stop-color="#FF4242"/>
</radialGradient>
<radialGradient id="paint5_radial_24_3206" cx="0" cy="0" r="1" gradientUnits="userSpaceOnUse" gradientTransform="translate(38.001 41) rotate(180) scale(18 23.0158)">
<stop offset="0.0579998" stop-color="#FFADD0"/>
<stop offset="1" stop-color="#FF4242"/>
</radialGradient>
</defs>
</svg>
