<svg width="432" height="198" viewBox="0 0 432 198" fill="none" xmlns="http://www.w3.org/2000/svg">
<g clip-path="url(#clip0_1301_2741)">
<rect width="144" height="36" transform="translate(0 162)" fill="#004520"/>
<path d="M74.8959 186.731L72.3291 173.277L101.448 167.641L104.015 181.094L74.8959 186.731Z" fill="url(#paint0_linear_1301_2741)"/>
<path d="M74.8956 186.723L72.3289 173.27L43.21 178.906L45.7767 192.36L74.8956 186.723Z" fill="url(#paint1_linear_1301_2741)"/>
<path d="M16.6566 198L14.0898 184.547L43.2088 178.91L45.7755 192.364L16.6566 198Z" fill="url(#paint2_linear_1301_2741)"/>
<path d="M2.8265 186.731L0.259766 173.277L29.3787 167.641L31.9454 181.094L2.8265 186.731Z" fill="url(#paint3_linear_1301_2741)"/>
<path d="M61.0646 175.453L31.9456 181.09L29.3789 167.637L58.4978 162L61.0646 175.453Z" fill="url(#paint4_linear_1301_2741)"/>
<path d="M133.133 175.453L130.566 162L101.447 167.637L104.014 181.09L133.133 175.453Z" fill="url(#paint5_linear_1301_2741)"/>
<path d="M88.7249 198L86.1582 184.547L115.277 178.91L117.844 192.364L88.7249 198Z" fill="url(#paint6_linear_1301_2741)"/>
<path d="M146.961 186.723L117.843 192.36L115.275 178.906L144.394 173.27L146.961 186.723Z" fill="url(#paint7_linear_1301_2741)"/>
<path d="M2.83217 186.723L-26.2863 192.36L-28.8535 178.906L0.265432 173.27L2.83217 186.723Z" fill="url(#paint8_linear_1301_2741)"/>
<path d="M14.0897 184.547L16.6564 198M130.565 162L133.132 175.453M72.3276 173.273L74.8943 186.727M101.446 167.637L104.013 181.09M43.2086 178.91L45.7754 192.363M58.4974 162L61.0642 175.453M0.456055 173.235L3.02279 186.689M29.3785 167.637L31.9452 181.09M86.1571 184.547L88.7239 198M115.276 178.91L117.843 192.363" stroke="#01F438" stroke-width="0.9"/>
</g>
<g clip-path="url(#clip1_1301_2741)">
<rect width="144" height="36" transform="translate(144 162)" fill="#004520"/>
<path d="M218.896 186.731L216.329 173.277L245.448 167.641L248.015 181.094L218.896 186.731Z" fill="url(#paint9_linear_1301_2741)"/>
<path d="M218.896 186.723L216.329 173.27L187.21 178.906L189.777 192.36L218.896 186.723Z" fill="url(#paint10_linear_1301_2741)"/>
<path d="M160.657 198L158.09 184.547L187.209 178.91L189.776 192.364L160.657 198Z" fill="url(#paint11_linear_1301_2741)"/>
<path d="M146.827 186.731L144.26 173.277L173.379 167.641L175.945 181.094L146.827 186.731Z" fill="url(#paint12_linear_1301_2741)"/>
<path d="M205.065 175.453L175.946 181.09L173.379 167.637L202.498 162L205.065 175.453Z" fill="url(#paint13_linear_1301_2741)"/>
<path d="M277.133 175.453L274.566 162L245.447 167.637L248.014 181.09L277.133 175.453Z" fill="url(#paint14_linear_1301_2741)"/>
<path d="M232.725 198L230.158 184.547L259.277 178.91L261.844 192.364L232.725 198Z" fill="url(#paint15_linear_1301_2741)"/>
<path d="M290.961 186.723L261.843 192.36L259.275 178.906L288.394 173.27L290.961 186.723Z" fill="url(#paint16_linear_1301_2741)"/>
<path d="M146.832 186.723L117.714 192.36L115.146 178.906L144.265 173.27L146.832 186.723Z" fill="url(#paint17_linear_1301_2741)"/>
<path d="M158.09 184.547L160.656 198M274.565 162L277.132 175.453M216.328 173.273L218.894 186.727M245.446 167.637L248.013 181.09M187.209 178.91L189.775 192.363M202.497 162L205.064 175.453M144.456 173.235L147.023 186.689M173.378 167.637L175.945 181.09M230.157 184.547L232.724 198M259.276 178.91L261.843 192.363" stroke="#01F438" stroke-width="0.9"/>
</g>
<g clip-path="url(#clip2_1301_2741)">
<rect width="144" height="36" transform="translate(288 162)" fill="#004520"/>
<path d="M362.896 186.731L360.329 173.277L389.448 167.641L392.015 181.094L362.896 186.731Z" fill="url(#paint18_linear_1301_2741)"/>
<path d="M362.896 186.723L360.329 173.27L331.21 178.906L333.777 192.36L362.896 186.723Z" fill="url(#paint19_linear_1301_2741)"/>
<path d="M304.657 198L302.09 184.547L331.209 178.91L333.776 192.364L304.657 198Z" fill="url(#paint20_linear_1301_2741)"/>
<path d="M290.827 186.731L288.26 173.277L317.379 167.641L319.945 181.094L290.827 186.731Z" fill="url(#paint21_linear_1301_2741)"/>
<path d="M349.065 175.453L319.946 181.09L317.379 167.637L346.498 162L349.065 175.453Z" fill="url(#paint22_linear_1301_2741)"/>
<path d="M421.133 175.453L418.566 162L389.447 167.637L392.014 181.09L421.133 175.453Z" fill="url(#paint23_linear_1301_2741)"/>
<path d="M376.725 198L374.158 184.547L403.277 178.91L405.844 192.364L376.725 198Z" fill="url(#paint24_linear_1301_2741)"/>
<path d="M434.961 186.723L405.843 192.36L403.275 178.906L432.394 173.27L434.961 186.723Z" fill="url(#paint25_linear_1301_2741)"/>
<path d="M290.832 186.723L261.714 192.36L259.146 178.906L288.265 173.27L290.832 186.723Z" fill="url(#paint26_linear_1301_2741)"/>
<path d="M302.09 184.547L304.656 198M418.565 162L421.132 175.453M360.328 173.273L362.894 186.727M389.446 167.637L392.013 181.09M331.209 178.91L333.775 192.363M346.497 162L349.064 175.453M288.456 173.235L291.023 186.689M317.378 167.637L319.945 181.09M374.157 184.547L376.724 198M403.276 178.91L405.843 192.363" stroke="#01F438" stroke-width="0.9"/>
</g>
<rect width="144" height="18" transform="matrix(1 0 0 -1 0 108)" fill="url(#paint27_linear_1301_2741)"/>
<rect width="144" height="18" transform="matrix(1 0 0 -1 144 108)" fill="url(#paint28_linear_1301_2741)"/>
<rect width="144" height="18" transform="matrix(1 0 0 -1 288 108)" fill="url(#paint29_linear_1301_2741)"/>
<rect width="144" height="18" transform="matrix(1 0 0 -1 0 18)" fill="url(#paint30_linear_1301_2741)"/>
<rect width="144" height="18" transform="matrix(1 0 0 -1 144 18)" fill="url(#paint31_linear_1301_2741)"/>
<rect width="144" height="18" transform="matrix(1 0 0 -1 288 18)" fill="url(#paint32_linear_1301_2741)"/>
<rect width="144" height="18" transform="matrix(1 0 0 -1 0 162)" fill="url(#paint33_linear_1301_2741)"/>
<rect width="144" height="18" transform="matrix(1 0 0 -1 144 162)" fill="url(#paint34_linear_1301_2741)"/>
<rect width="144" height="18" transform="matrix(1 0 0 -1 288 162)" fill="url(#paint35_linear_1301_2741)"/>
<g clip-path="url(#clip3_1301_2741)">
<rect width="144" height="36" transform="translate(0 108)" fill="#743C3C"/>
<path d="M72 144C98.0589 144 124.118 132.076 144 108H0C19.8823 132.076 45.9411 144 72 144Z" fill="url(#paint36_radial_1301_2741)"/>
</g>
<g clip-path="url(#clip4_1301_2741)">
<rect width="144" height="36" transform="translate(144 108)" fill="#743C3C"/>
<path d="M216 144C242.059 144 268.118 132.076 288 108H144C163.882 132.076 189.941 144 216 144Z" fill="url(#paint37_radial_1301_2741)"/>
</g>
<g clip-path="url(#clip5_1301_2741)">
<rect width="144" height="36" transform="translate(288 108)" fill="#743C3C"/>
<path d="M360 144C386.059 144 412.118 132.076 432 108H288C307.882 132.076 333.941 144 360 144Z" fill="url(#paint38_radial_1301_2741)"/>
</g>
<g clip-path="url(#clip6_1301_2741)">
<rect width="108" height="72" transform="translate(0 18)" fill="#743C3C"/>
<path fill-rule="evenodd" clip-rule="evenodd" d="M16.6276 25.0967C38.5215 7.42838 67.2768 25.2822 67.4987 50.867H67.5C67.5 50.891 67.5 50.915 67.5 50.9391C67.4999 50.9668 67.4998 50.9946 67.4997 51.0224C67.4999 51.0699 67.4997 51.1175 67.4997 51.1651V59.8361C67.4997 60.4165 68.0421 60.845 68.6055 60.7057C76.8383 58.6693 83.3715 55.9347 88.9369 52.8658C97.8101 47.9729 104.221 42.4225 111.818 35.8445C115.18 32.934 118.774 29.8222 122.917 26.4773L122.92 26.475L124.628 25.0967C146.521 7.42838 175.277 25.2822 175.499 50.867H175.5C175.5 50.9188 175.5 50.9706 175.5 51.0224C175.5 51.0699 175.5 51.1175 175.5 51.1651H175.499C175.347 71.8829 159.423 90 138.159 90H107.721V71.3754C105.614 72.7438 103.439 74.0598 101.187 75.3014C84.8442 84.3132 64.2187 89.9999 33.2469 89.9999H31.5V89.9918C31.0569 89.9973 30.6098 90 30.1586 90H3.03984e-06V71.1C-2.10678 72.4684 -4.56145 74.0598 -6.81313 75.3014C-23.1558 84.3132 -43.7813 89.9999 -74.7531 89.9999H-76.5V64.4087H-74.7531C-47.1168 64.4087 -30.9006 59.3933 -19.0631 52.8658C-10.1899 47.9729 -3.77909 42.4224 3.81855 35.8445C7.18023 32.9339 10.7743 29.8222 14.9168 26.4773L14.9196 26.475L16.6276 25.0967ZM38.3665 44.4296C36.5312 43.4506 34.519 43.4785 32.5715 45.0501L30.8664 46.4261C28.136 48.6308 25.3105 51.0752 22.3527 53.6339C18.9309 56.5941 15.3312 59.7082 11.4945 62.7837C10.8262 63.3194 11.2025 64.4083 12.059 64.4083H30.158C35.9346 64.4083 41.9523 59.1874 42.0334 51.0335C41.9902 47.6299 40.2625 45.4408 38.3665 44.4296ZM140.572 45.0506C142.52 43.4791 144.532 43.4511 146.367 44.4301C148.263 45.4414 149.991 47.6305 150.034 51.034C149.953 59.188 143.935 64.4088 138.159 64.4088H117.44C122.055 60.8132 126.327 57.1173 130.353 53.6343C133.311 51.0754 136.136 48.6315 138.867 46.4267L140.572 45.0506Z" fill="url(#paint39_linear_1301_2741)"/>
<path d="M-0.112305 60.4395L26.92 38.0443C29.092 36.2916 31.7508 35.0629 34.7666 34.8124C37.7538 34.5643 40.4337 35.3297 42.6028 36.4867C47.3513 39.0196 50.9489 44.2841 51.0346 51.0192C50.9869 55.8097 49.5803 60.2644 47.2499 63.8259M-0.112305 80.9981L40.5006 80.8794V80.8853C66.1927 80.0679 83.3286 74.8697 96.8415 67.4184C98.8856 66.2912 100.876 65.0884 102.819 63.8259L107.167 61.0019L111.909 57.3073" stroke="#FFADD0" stroke-width="0.9" stroke-linecap="round"/>
</g>
<g clip-path="url(#clip7_1301_2741)">
<rect width="108" height="72" transform="translate(108 18)" fill="#743C3C"/>
<path fill-rule="evenodd" clip-rule="evenodd" d="M124.628 25.0967C146.521 7.42838 175.277 25.2822 175.499 50.867H175.5C175.5 50.891 175.5 50.915 175.5 50.9391C175.5 50.9668 175.5 50.9946 175.5 51.0224C175.5 51.0699 175.5 51.1175 175.5 51.1651V59.8361C175.5 60.4165 176.042 60.845 176.605 60.7057C184.838 58.6693 191.372 55.9347 196.937 52.8658C205.81 47.9729 212.221 42.4225 219.818 35.8445C223.18 32.934 226.774 29.8222 230.917 26.4773L230.92 26.475L232.628 25.0967C254.521 7.42838 283.277 25.2822 283.499 50.867H283.5C283.5 50.9188 283.5 50.9706 283.5 51.0224C283.5 51.0699 283.5 51.1175 283.5 51.1651H283.499C283.347 71.8829 267.423 90 246.159 90H215.721V71.3754C213.614 72.7438 211.439 74.0598 209.187 75.3014C192.844 84.3132 172.219 89.9999 141.247 89.9999H139.5V89.9918C139.057 89.9973 138.61 90 138.159 90H108V71.1C105.893 72.4684 103.439 74.0598 101.187 75.3014C84.8442 84.3132 64.2187 89.9999 33.2469 89.9999H31.5V64.4087H33.2469C60.8832 64.4087 77.0994 59.3933 88.9369 52.8658C97.8101 47.9729 104.221 42.4224 111.819 35.8445C115.18 32.9339 118.774 29.8222 122.917 26.4773L122.92 26.475L124.628 25.0967ZM146.367 44.4296C144.531 43.4506 142.519 43.4785 140.572 45.0501L138.866 46.4261C136.136 48.6308 133.31 51.0752 130.353 53.6339C126.931 56.5941 123.331 59.7082 119.494 62.7837C118.826 63.3194 119.202 64.4083 120.059 64.4083H138.158C143.935 64.4083 149.952 59.1874 150.033 51.0335C149.99 47.6299 148.262 45.4408 146.367 44.4296ZM248.572 45.0506C250.52 43.4791 252.532 43.4511 254.367 44.4301C256.263 45.4414 257.991 47.6305 258.034 51.034C257.953 59.188 251.935 64.4088 246.159 64.4088H225.44C230.055 60.8132 234.327 57.1173 238.353 53.6343C241.311 51.0754 244.136 48.6315 246.867 46.4267L248.572 45.0506Z" fill="url(#paint40_linear_1301_2741)"/>
<path d="M107.888 60.4395L134.92 38.0443C137.092 36.2916 139.751 35.0629 142.767 34.8124C145.754 34.5643 148.434 35.3297 150.603 36.4867C155.351 39.0196 158.949 44.2841 159.035 51.0192C158.987 55.8097 157.58 60.2644 155.25 63.8259M107.888 80.9981L148.501 80.8794V80.8853C174.193 80.0679 191.329 74.8697 204.842 67.4184C206.886 66.2912 208.876 65.0884 210.819 63.8259L215.167 61.0019L219.909 57.3073" stroke="#FFADD0" stroke-width="0.9" stroke-linecap="round"/>
</g>
<g clip-path="url(#clip8_1301_2741)">
<rect width="108" height="72" transform="translate(216 18)" fill="#743C3C"/>
<path fill-rule="evenodd" clip-rule="evenodd" d="M232.628 25.0967C254.521 7.42838 283.277 25.2822 283.499 50.867H283.5C283.5 50.891 283.5 50.915 283.5 50.9391C283.5 50.9668 283.5 50.9946 283.5 51.0224C283.5 51.0699 283.5 51.1175 283.5 51.1651V59.8361C283.5 60.4165 284.042 60.845 284.605 60.7057C292.838 58.6693 299.372 55.9347 304.937 52.8658C313.81 47.9729 320.221 42.4225 327.818 35.8445C331.18 32.934 334.774 29.8222 338.917 26.4773L338.92 26.475L340.628 25.0967C362.521 7.42838 391.277 25.2822 391.499 50.867H391.5C391.5 50.9188 391.5 50.9706 391.5 51.0224C391.5 51.0699 391.5 51.1175 391.5 51.1651H391.499C391.347 71.8829 375.423 90 354.159 90H323.721V71.3754C321.614 72.7438 319.439 74.0598 317.187 75.3014C300.844 84.3132 280.219 89.9999 249.247 89.9999H247.5V89.9918C247.057 89.9973 246.61 90 246.159 90H216V71.1C213.893 72.4684 211.439 74.0598 209.187 75.3014C192.844 84.3132 172.219 89.9999 141.247 89.9999H139.5V64.4087H141.247C168.883 64.4087 185.099 59.3933 196.937 52.8658C205.81 47.9729 212.221 42.4224 219.819 35.8445C223.18 32.9339 226.774 29.8222 230.917 26.4773L230.92 26.475L232.628 25.0967ZM254.367 44.4296C252.531 43.4506 250.519 43.4785 248.572 45.0501L246.866 46.4261C244.136 48.6308 241.31 51.0752 238.353 53.6339C234.931 56.5941 231.331 59.7082 227.494 62.7837C226.826 63.3194 227.202 64.4083 228.059 64.4083H246.158C251.935 64.4083 257.952 59.1874 258.033 51.0335C257.99 47.6299 256.262 45.4408 254.367 44.4296ZM356.572 45.0506C358.52 43.4791 360.532 43.4511 362.367 44.4301C364.263 45.4414 365.991 47.6305 366.034 51.034C365.953 59.188 359.935 64.4088 354.159 64.4088H333.44C338.055 60.8132 342.327 57.1173 346.353 53.6343C349.311 51.0754 352.136 48.6315 354.867 46.4267L356.572 45.0506Z" fill="url(#paint41_linear_1301_2741)"/>
<path d="M215.888 60.4395L242.92 38.0443C245.092 36.2916 247.751 35.0629 250.767 34.8124C253.754 34.5643 256.434 35.3297 258.603 36.4867C263.351 39.0196 266.949 44.2841 267.035 51.0192C266.987 55.8097 265.58 60.2644 263.25 63.8259M215.888 80.9981L256.501 80.8794V80.8853C282.193 80.0679 299.329 74.8697 312.842 67.4184C314.886 66.2912 316.876 65.0884 318.819 63.8259L323.167 61.0019L327.909 57.3073" stroke="#FFADD0" stroke-width="0.9" stroke-linecap="round"/>
</g>
<g clip-path="url(#clip9_1301_2741)">
<rect width="108" height="72" transform="translate(324 18)" fill="#743C3C"/>
<path fill-rule="evenodd" clip-rule="evenodd" d="M340.628 25.0967C362.521 7.42838 391.277 25.2822 391.499 50.867H391.5C391.5 50.891 391.5 50.915 391.5 50.9391C391.5 50.9668 391.5 50.9946 391.5 51.0224C391.5 51.0699 391.5 51.1175 391.5 51.1651V59.8361C391.5 60.4165 392.042 60.845 392.605 60.7057C400.838 58.6693 407.372 55.9347 412.937 52.8658C421.81 47.9729 428.221 42.4225 435.818 35.8445C439.18 32.934 442.774 29.8222 446.917 26.4773L446.92 26.475L448.628 25.0967C470.521 7.42838 499.277 25.2822 499.499 50.867H499.5C499.5 50.9188 499.5 50.9706 499.5 51.0224C499.5 51.0699 499.5 51.1175 499.5 51.1651H499.499C499.347 71.8829 483.423 90 462.159 90H431.721V71.3754C429.614 72.7438 427.439 74.0598 425.187 75.3014C408.844 84.3132 388.219 89.9999 357.247 89.9999H355.5V89.9918C355.057 89.9973 354.61 90 354.159 90H324V71.1C321.893 72.4684 319.439 74.0598 317.187 75.3014C300.844 84.3132 280.219 89.9999 249.247 89.9999H247.5V64.4087H249.247C276.883 64.4087 293.099 59.3933 304.937 52.8658C313.81 47.9729 320.221 42.4224 327.819 35.8445C331.18 32.9339 334.774 29.8222 338.917 26.4773L338.92 26.475L340.628 25.0967ZM362.367 44.4296C360.531 43.4506 358.519 43.4785 356.572 45.0501L354.866 46.4261C352.136 48.6308 349.31 51.0752 346.353 53.6339C342.931 56.5941 339.331 59.7082 335.494 62.7837C334.826 63.3194 335.202 64.4083 336.059 64.4083H354.158C359.935 64.4083 365.952 59.1874 366.033 51.0335C365.99 47.6299 364.262 45.4408 362.367 44.4296ZM464.572 45.0506C466.52 43.4791 468.532 43.4511 470.367 44.4301C472.263 45.4414 473.991 47.6305 474.034 51.034C473.953 59.188 467.935 64.4088 462.159 64.4088H441.44C446.055 60.8132 450.327 57.1173 454.353 53.6343C457.311 51.0754 460.136 48.6315 462.867 46.4267L464.572 45.0506Z" fill="url(#paint42_linear_1301_2741)"/>
<path d="M323.888 60.4395L350.92 38.0443C353.092 36.2916 355.751 35.0629 358.767 34.8124C361.754 34.5643 364.434 35.3297 366.603 36.4867C371.351 39.0196 374.949 44.2841 375.035 51.0192C374.987 55.8097 373.58 60.2644 371.25 63.8259M323.888 80.9981L364.501 80.8794V80.8853C390.193 80.0679 407.329 74.8697 420.842 67.4184C422.886 66.2912 424.876 65.0884 426.819 63.8259L431.167 61.0019L435.909 57.3073" stroke="#FFADD0" stroke-width="0.9" stroke-linecap="round"/>
</g>
<defs>
<linearGradient id="paint0_linear_1301_2741" x1="104.015" y1="176.125" x2="72.3291" y2="176.125" gradientUnits="userSpaceOnUse">
<stop stop-color="#01FF39"/>
<stop offset="1" stop-color="#005A29"/>
</linearGradient>
<linearGradient id="paint1_linear_1301_2741" x1="74.8956" y1="181.754" x2="43.21" y2="181.754" gradientUnits="userSpaceOnUse">
<stop stop-color="#01FF39"/>
<stop offset="1" stop-color="#005A29"/>
</linearGradient>
<linearGradient id="paint2_linear_1301_2741" x1="45.7755" y1="187.395" x2="14.0898" y2="187.395" gradientUnits="userSpaceOnUse">
<stop stop-color="#01FF39"/>
<stop offset="1" stop-color="#005A29"/>
</linearGradient>
<linearGradient id="paint3_linear_1301_2741" x1="31.9454" y1="176.125" x2="0.259766" y2="176.125" gradientUnits="userSpaceOnUse">
<stop stop-color="#01FF39"/>
<stop offset="1" stop-color="#005A29"/>
</linearGradient>
<linearGradient id="paint4_linear_1301_2741" x1="61.0646" y1="170.484" x2="29.3789" y2="170.484" gradientUnits="userSpaceOnUse">
<stop stop-color="#01FF39"/>
<stop offset="1" stop-color="#005A29"/>
</linearGradient>
<linearGradient id="paint5_linear_1301_2741" x1="133.133" y1="170.484" x2="101.447" y2="170.484" gradientUnits="userSpaceOnUse">
<stop stop-color="#01FF39"/>
<stop offset="1" stop-color="#005A29"/>
</linearGradient>
<linearGradient id="paint6_linear_1301_2741" x1="117.844" y1="187.395" x2="86.1582" y2="187.395" gradientUnits="userSpaceOnUse">
<stop stop-color="#01FF39"/>
<stop offset="1" stop-color="#005A29"/>
</linearGradient>
<linearGradient id="paint7_linear_1301_2741" x1="146.961" y1="181.754" x2="115.275" y2="181.754" gradientUnits="userSpaceOnUse">
<stop stop-color="#01FF39"/>
<stop offset="1" stop-color="#005A29"/>
</linearGradient>
<linearGradient id="paint8_linear_1301_2741" x1="2.83217" y1="181.754" x2="-28.8535" y2="181.754" gradientUnits="userSpaceOnUse">
<stop stop-color="#01FF39"/>
<stop offset="1" stop-color="#005A29"/>
</linearGradient>
<linearGradient id="paint9_linear_1301_2741" x1="248.015" y1="176.125" x2="216.329" y2="176.125" gradientUnits="userSpaceOnUse">
<stop stop-color="#01FF39"/>
<stop offset="1" stop-color="#005A29"/>
</linearGradient>
<linearGradient id="paint10_linear_1301_2741" x1="218.896" y1="181.754" x2="187.21" y2="181.754" gradientUnits="userSpaceOnUse">
<stop stop-color="#01FF39"/>
<stop offset="1" stop-color="#005A29"/>
</linearGradient>
<linearGradient id="paint11_linear_1301_2741" x1="189.776" y1="187.395" x2="158.09" y2="187.395" gradientUnits="userSpaceOnUse">
<stop stop-color="#01FF39"/>
<stop offset="1" stop-color="#005A29"/>
</linearGradient>
<linearGradient id="paint12_linear_1301_2741" x1="175.945" y1="176.125" x2="144.26" y2="176.125" gradientUnits="userSpaceOnUse">
<stop stop-color="#01FF39"/>
<stop offset="1" stop-color="#005A29"/>
</linearGradient>
<linearGradient id="paint13_linear_1301_2741" x1="205.065" y1="170.484" x2="173.379" y2="170.484" gradientUnits="userSpaceOnUse">
<stop stop-color="#01FF39"/>
<stop offset="1" stop-color="#005A29"/>
</linearGradient>
<linearGradient id="paint14_linear_1301_2741" x1="277.133" y1="170.484" x2="245.447" y2="170.484" gradientUnits="userSpaceOnUse">
<stop stop-color="#01FF39"/>
<stop offset="1" stop-color="#005A29"/>
</linearGradient>
<linearGradient id="paint15_linear_1301_2741" x1="261.844" y1="187.395" x2="230.158" y2="187.395" gradientUnits="userSpaceOnUse">
<stop stop-color="#01FF39"/>
<stop offset="1" stop-color="#005A29"/>
</linearGradient>
<linearGradient id="paint16_linear_1301_2741" x1="290.961" y1="181.754" x2="259.275" y2="181.754" gradientUnits="userSpaceOnUse">
<stop stop-color="#01FF39"/>
<stop offset="1" stop-color="#005A29"/>
</linearGradient>
<linearGradient id="paint17_linear_1301_2741" x1="146.832" y1="181.754" x2="115.146" y2="181.754" gradientUnits="userSpaceOnUse">
<stop stop-color="#01FF39"/>
<stop offset="1" stop-color="#005A29"/>
</linearGradient>
<linearGradient id="paint18_linear_1301_2741" x1="392.015" y1="176.125" x2="360.329" y2="176.125" gradientUnits="userSpaceOnUse">
<stop stop-color="#01FF39"/>
<stop offset="1" stop-color="#005A29"/>
</linearGradient>
<linearGradient id="paint19_linear_1301_2741" x1="362.896" y1="181.754" x2="331.21" y2="181.754" gradientUnits="userSpaceOnUse">
<stop stop-color="#01FF39"/>
<stop offset="1" stop-color="#005A29"/>
</linearGradient>
<linearGradient id="paint20_linear_1301_2741" x1="333.776" y1="187.395" x2="302.09" y2="187.395" gradientUnits="userSpaceOnUse">
<stop stop-color="#01FF39"/>
<stop offset="1" stop-color="#005A29"/>
</linearGradient>
<linearGradient id="paint21_linear_1301_2741" x1="319.945" y1="176.125" x2="288.26" y2="176.125" gradientUnits="userSpaceOnUse">
<stop stop-color="#01FF39"/>
<stop offset="1" stop-color="#005A29"/>
</linearGradient>
<linearGradient id="paint22_linear_1301_2741" x1="349.065" y1="170.484" x2="317.379" y2="170.484" gradientUnits="userSpaceOnUse">
<stop stop-color="#01FF39"/>
<stop offset="1" stop-color="#005A29"/>
</linearGradient>
<linearGradient id="paint23_linear_1301_2741" x1="421.133" y1="170.484" x2="389.447" y2="170.484" gradientUnits="userSpaceOnUse">
<stop stop-color="#01FF39"/>
<stop offset="1" stop-color="#005A29"/>
</linearGradient>
<linearGradient id="paint24_linear_1301_2741" x1="405.844" y1="187.395" x2="374.158" y2="187.395" gradientUnits="userSpaceOnUse">
<stop stop-color="#01FF39"/>
<stop offset="1" stop-color="#005A29"/>
</linearGradient>
<linearGradient id="paint25_linear_1301_2741" x1="434.961" y1="181.754" x2="403.275" y2="181.754" gradientUnits="userSpaceOnUse">
<stop stop-color="#01FF39"/>
<stop offset="1" stop-color="#005A29"/>
</linearGradient>
<linearGradient id="paint26_linear_1301_2741" x1="290.832" y1="181.754" x2="259.146" y2="181.754" gradientUnits="userSpaceOnUse">
<stop stop-color="#01FF39"/>
<stop offset="1" stop-color="#005A29"/>
</linearGradient>
<linearGradient id="paint27_linear_1301_2741" x1="72" y1="0" x2="72" y2="18" gradientUnits="userSpaceOnUse">
<stop stop-color="#FFB800"/>
<stop offset="1" stop-color="#FFF500"/>
</linearGradient>
<linearGradient id="paint28_linear_1301_2741" x1="72" y1="0" x2="72" y2="18" gradientUnits="userSpaceOnUse">
<stop stop-color="#FFB800"/>
<stop offset="1" stop-color="#FFF500"/>
</linearGradient>
<linearGradient id="paint29_linear_1301_2741" x1="72" y1="0" x2="72" y2="18" gradientUnits="userSpaceOnUse">
<stop stop-color="#FFB800"/>
<stop offset="1" stop-color="#FFF500"/>
</linearGradient>
<linearGradient id="paint30_linear_1301_2741" x1="72" y1="0" x2="72" y2="18" gradientUnits="userSpaceOnUse">
<stop stop-color="#FFB800"/>
<stop offset="1" stop-color="#FFF500"/>
</linearGradient>
<linearGradient id="paint31_linear_1301_2741" x1="72" y1="0" x2="72" y2="18" gradientUnits="userSpaceOnUse">
<stop stop-color="#FFB800"/>
<stop offset="1" stop-color="#FFF500"/>
</linearGradient>
<linearGradient id="paint32_linear_1301_2741" x1="72" y1="0" x2="72" y2="18" gradientUnits="userSpaceOnUse">
<stop stop-color="#FFB800"/>
<stop offset="1" stop-color="#FFF500"/>
</linearGradient>
<linearGradient id="paint33_linear_1301_2741" x1="72" y1="0" x2="72" y2="18" gradientUnits="userSpaceOnUse">
<stop stop-color="#FFB800"/>
<stop offset="1" stop-color="#FFF500"/>
</linearGradient>
<linearGradient id="paint34_linear_1301_2741" x1="72" y1="0" x2="72" y2="18" gradientUnits="userSpaceOnUse">
<stop stop-color="#FFB800"/>
<stop offset="1" stop-color="#FFF500"/>
</linearGradient>
<linearGradient id="paint35_linear_1301_2741" x1="72" y1="0" x2="72" y2="18" gradientUnits="userSpaceOnUse">
<stop stop-color="#FFB800"/>
<stop offset="1" stop-color="#FFF500"/>
</linearGradient>
<radialGradient id="paint36_radial_1301_2741" cx="0" cy="0" r="1" gradientUnits="userSpaceOnUse" gradientTransform="translate(72 108) rotate(90) scale(23.85 53.6706)">
<stop offset="0.108321" stop-color="#FFADD0"/>
<stop offset="1" stop-color="#FF4242"/>
</radialGradient>
<radialGradient id="paint37_radial_1301_2741" cx="0" cy="0" r="1" gradientUnits="userSpaceOnUse" gradientTransform="translate(216 108) rotate(90) scale(23.85 53.6706)">
<stop offset="0.108321" stop-color="#FFADD0"/>
<stop offset="1" stop-color="#FF4242"/>
</radialGradient>
<radialGradient id="paint38_radial_1301_2741" cx="0" cy="0" r="1" gradientUnits="userSpaceOnUse" gradientTransform="translate(360 108) rotate(90) scale(23.85 53.6706)">
<stop offset="0.108321" stop-color="#FFADD0"/>
<stop offset="1" stop-color="#FF4242"/>
</radialGradient>
<linearGradient id="paint39_linear_1301_2741" x1="84.0837" y1="18" x2="84.0837" y2="90" gradientUnits="userSpaceOnUse">
<stop stop-color="#FFADD0"/>
<stop offset="1" stop-color="#FF5674"/>
</linearGradient>
<linearGradient id="paint40_linear_1301_2741" x1="192.084" y1="18" x2="192.084" y2="90" gradientUnits="userSpaceOnUse">
<stop stop-color="#FFADD0"/>
<stop offset="1" stop-color="#FF5674"/>
</linearGradient>
<linearGradient id="paint41_linear_1301_2741" x1="300.084" y1="18" x2="300.084" y2="90" gradientUnits="userSpaceOnUse">
<stop stop-color="#FFADD0"/>
<stop offset="1" stop-color="#FF5674"/>
</linearGradient>
<linearGradient id="paint42_linear_1301_2741" x1="408.084" y1="18" x2="408.084" y2="90" gradientUnits="userSpaceOnUse">
<stop stop-color="#FFADD0"/>
<stop offset="1" stop-color="#FF5674"/>
</linearGradient>
<clipPath id="clip0_1301_2741">
<rect width="144" height="36" fill="white" transform="translate(0 162)"/>
</clipPath>
<clipPath id="clip1_1301_2741">
<rect width="144" height="36" fill="white" transform="translate(144 162)"/>
</clipPath>
<clipPath id="clip2_1301_2741">
<rect width="144" height="36" fill="white" transform="translate(288 162)"/>
</clipPath>
<clipPath id="clip3_1301_2741">
<rect width="144" height="36" fill="white" transform="translate(0 108)"/>
</clipPath>
<clipPath id="clip4_1301_2741">
<rect width="144" height="36" fill="white" transform="translate(144 108)"/>
</clipPath>
<clipPath id="clip5_1301_2741">
<rect width="144" height="36" fill="white" transform="translate(288 108)"/>
</clipPath>
<clipPath id="clip6_1301_2741">
<rect width="108" height="72" fill="white" transform="translate(0 18)"/>
</clipPath>
<clipPath id="clip7_1301_2741">
<rect width="108" height="72" fill="white" transform="translate(108 18)"/>
</clipPath>
<clipPath id="clip8_1301_2741">
<rect width="108" height="72" fill="white" transform="translate(216 18)"/>
</clipPath>
<clipPath id="clip9_1301_2741">
<rect width="108" height="72" fill="white" transform="translate(324 18)"/>
</clipPath>
</defs>
</svg>
