<svg width="432" height="198" viewBox="0 0 432 198" fill="none" xmlns="http://www.w3.org/2000/svg">
<g clip-path="url(#clip0_29_5728)">
<rect width="144" height="36" transform="translate(0 162)" fill="#004520"/>
<path d="M74.8959 186.731L72.3291 173.277L101.448 167.641L104.015 181.094L74.8959 186.731Z" fill="url(#paint0_linear_29_5728)"/>
<path d="M74.8956 186.723L72.3289 173.27L43.21 178.906L45.7767 192.36L74.8956 186.723Z" fill="url(#paint1_linear_29_5728)"/>
<path d="M16.6566 198L14.0898 184.547L43.2088 178.91L45.7755 192.364L16.6566 198Z" fill="url(#paint2_linear_29_5728)"/>
<path d="M2.8265 186.731L0.259766 173.277L29.3787 167.641L31.9454 181.094L2.8265 186.731Z" fill="url(#paint3_linear_29_5728)"/>
<path d="M61.0646 175.453L31.9456 181.09L29.3789 167.637L58.4978 162L61.0646 175.453Z" fill="url(#paint4_linear_29_5728)"/>
<path d="M133.133 175.453L130.566 162L101.447 167.637L104.014 181.09L133.133 175.453Z" fill="url(#paint5_linear_29_5728)"/>
<path d="M88.7249 198L86.1582 184.547L115.277 178.91L117.844 192.364L88.7249 198Z" fill="url(#paint6_linear_29_5728)"/>
<path d="M146.961 186.723L117.843 192.36L115.275 178.906L144.394 173.27L146.961 186.723Z" fill="url(#paint7_linear_29_5728)"/>
<path d="M2.83217 186.723L-26.2863 192.36L-28.8535 178.906L0.265432 173.27L2.83217 186.723Z" fill="url(#paint8_linear_29_5728)"/>
<path d="M14.0897 184.547L16.6564 198M130.565 162L133.132 175.453M72.3276 173.273L74.8943 186.727M101.446 167.637L104.013 181.09M43.2086 178.91L45.7754 192.363M58.4974 162L61.0642 175.453M0.456055 173.235L3.02279 186.689M29.3785 167.637L31.9452 181.09M86.1571 184.547L88.7239 198M115.276 178.91L117.843 192.363" stroke="#01F438" stroke-width="0.9"/>
</g>
<g clip-path="url(#clip1_29_5728)">
<rect width="144" height="36" transform="translate(144 162)" fill="#004520"/>
<path d="M218.896 186.731L216.329 173.277L245.448 167.641L248.015 181.094L218.896 186.731Z" fill="url(#paint9_linear_29_5728)"/>
<path d="M218.896 186.723L216.329 173.27L187.21 178.906L189.777 192.36L218.896 186.723Z" fill="url(#paint10_linear_29_5728)"/>
<path d="M160.657 198L158.09 184.547L187.209 178.91L189.776 192.364L160.657 198Z" fill="url(#paint11_linear_29_5728)"/>
<path d="M146.827 186.731L144.26 173.277L173.379 167.641L175.945 181.094L146.827 186.731Z" fill="url(#paint12_linear_29_5728)"/>
<path d="M205.065 175.453L175.946 181.09L173.379 167.637L202.498 162L205.065 175.453Z" fill="url(#paint13_linear_29_5728)"/>
<path d="M277.133 175.453L274.566 162L245.447 167.637L248.014 181.09L277.133 175.453Z" fill="url(#paint14_linear_29_5728)"/>
<path d="M232.725 198L230.158 184.547L259.277 178.91L261.844 192.364L232.725 198Z" fill="url(#paint15_linear_29_5728)"/>
<path d="M290.961 186.723L261.843 192.36L259.275 178.906L288.394 173.27L290.961 186.723Z" fill="url(#paint16_linear_29_5728)"/>
<path d="M146.832 186.723L117.714 192.36L115.146 178.906L144.265 173.27L146.832 186.723Z" fill="url(#paint17_linear_29_5728)"/>
<path d="M158.09 184.547L160.656 198M274.565 162L277.132 175.453M216.328 173.273L218.894 186.727M245.446 167.637L248.013 181.09M187.209 178.91L189.775 192.363M202.497 162L205.064 175.453M144.456 173.235L147.023 186.689M173.378 167.637L175.945 181.09M230.157 184.547L232.724 198M259.276 178.91L261.843 192.363" stroke="#01F438" stroke-width="0.9"/>
</g>
<g clip-path="url(#clip2_29_5728)">
<rect width="144" height="36" transform="translate(288 162)" fill="#004520"/>
<path d="M362.896 186.731L360.329 173.277L389.448 167.641L392.015 181.094L362.896 186.731Z" fill="url(#paint18_linear_29_5728)"/>
<path d="M362.896 186.723L360.329 173.27L331.21 178.906L333.777 192.36L362.896 186.723Z" fill="url(#paint19_linear_29_5728)"/>
<path d="M304.657 198L302.09 184.547L331.209 178.91L333.776 192.364L304.657 198Z" fill="url(#paint20_linear_29_5728)"/>
<path d="M290.827 186.731L288.26 173.277L317.379 167.641L319.945 181.094L290.827 186.731Z" fill="url(#paint21_linear_29_5728)"/>
<path d="M349.065 175.453L319.946 181.09L317.379 167.637L346.498 162L349.065 175.453Z" fill="url(#paint22_linear_29_5728)"/>
<path d="M421.133 175.453L418.566 162L389.447 167.637L392.014 181.09L421.133 175.453Z" fill="url(#paint23_linear_29_5728)"/>
<path d="M376.725 198L374.158 184.547L403.277 178.91L405.844 192.364L376.725 198Z" fill="url(#paint24_linear_29_5728)"/>
<path d="M434.961 186.723L405.843 192.36L403.275 178.906L432.394 173.27L434.961 186.723Z" fill="url(#paint25_linear_29_5728)"/>
<path d="M290.832 186.723L261.714 192.36L259.146 178.906L288.265 173.27L290.832 186.723Z" fill="url(#paint26_linear_29_5728)"/>
<path d="M302.09 184.547L304.656 198M418.565 162L421.132 175.453M360.328 173.273L362.894 186.727M389.446 167.637L392.013 181.09M331.209 178.91L333.775 192.363M346.497 162L349.064 175.453M288.456 173.235L291.023 186.689M317.378 167.637L319.945 181.09M374.157 184.547L376.724 198M403.276 178.91L405.843 192.363" stroke="#01F438" stroke-width="0.9"/>
</g>
<g clip-path="url(#clip3_29_5728)">
<rect width="71.9999" height="71.9999" transform="matrix(1 0 0 -1 0 72)" fill="#004520"/>
<path fill-rule="evenodd" clip-rule="evenodd" d="M0 43.9023L6.69897e-06 10.3491C2.18809 8.70773 4.53377 6.95651 7.21893 5.07744L8.39775 4.25299C23.4226 -6.25526 43.7521 4.11011 43.9024 20.0644C43.9024 33.2297 32.3173 43.9023 17.5609 43.9023H0Z" fill="url(#paint27_linear_29_5728)"/>
<path d="M55.8508 20.8033C47.7357 24.6815 36.5907 28.0922 17.5605 28.0922V43.897H71.9995V10.3438C71.8448 10.4597 71.691 10.5752 71.5378 10.6901C66.3168 14.6079 61.9361 17.8951 55.8508 20.8033Z" fill="url(#paint28_linear_29_5728)"/>
<path d="M11.949 51.1914C8.59699 49.5895 4.72805 48.0673 0 46.8324V28.0976H45.6586C58.3336 28.0976 69.3367 35.972 72 46.5366C72 46.5366 72 50.0787 72 51.9356C71.8497 67.8899 51.5202 78.2553 36.4954 67.747L35.3166 66.9226C32.4417 64.9107 29.9559 63.0454 27.636 61.3046C22.4149 57.3867 18.0343 54.0996 11.949 51.1914Z" fill="url(#paint29_linear_29_5728)"/>
<path d="M11.9488 51.1914C9.42676 49.9861 6.61207 48.826 3.359 47.7994C1.6727 47.2672 -0.000195265 48.5599 -0.000195265 50.3282V52.2L-2.7002 46.8324L-0.000195265 28.0976H45.6584C58.3335 28.0976 69.3365 35.972 71.9998 46.5366C71.9998 46.5366 71.9998 50.0787 71.9998 51.9356C71.8496 67.8899 51.5201 78.2553 36.4952 67.747L35.3164 66.9226C32.4415 64.9107 29.9557 63.0454 27.6358 61.3046C22.4148 57.3867 18.0341 54.0996 11.9488 51.1914Z" fill="url(#paint30_linear_29_5728)"/>
<path d="M71.9996 28.0709V46.8125C65.2811 45.0576 56.8279 43.8826 45.6582 43.8826V28.0777H71.9996V28.0709Z" fill="url(#paint31_linear_29_5728)"/>
<path d="M0 36C4.23635 36 9.51069 38.1187 12.6663 39.3496C18.3951 41.5843 22.3298 43.6708 27.245 46.6814C29.4289 48.019 31.7691 49.4524 34.4756 50.9984L35.5853 51.6319C49.7298 59.7067 67.6428 51.7416 67.7842 39.4819V36.9C67.7842 36.4029 68.1872 36 68.6842 36H81" stroke="url(#paint32_linear_29_5728)" stroke-width="0.9"/>
<path d="M0 36C4.23635 36 9.51069 38.1187 12.6663 39.3496C18.3951 41.5843 22.3298 43.6708 27.245 46.6814C29.4289 48.019 31.7691 49.4524 34.4756 50.9984L35.5853 51.6319C49.7298 59.7067 67.6428 51.7416 67.7842 39.4819V36.9C67.7842 36.4029 68.1872 36 68.6842 36H81" stroke="url(#paint33_linear_29_5728)" stroke-width="0.9"/>
<path d="M0 36C4.23635 36 9.51069 38.1187 12.6663 39.3496C18.3951 41.5843 22.3298 43.6708 27.245 46.6814C29.4289 48.019 31.7691 49.4524 34.4756 50.9984L35.5853 51.6319C49.7298 59.7067 67.6428 51.7416 67.7842 39.4819V36.9C67.7842 36.4029 68.1872 36 68.6842 36H81" stroke="url(#paint34_linear_29_5728)" stroke-width="0.9"/>
<path d="M0 36C4.23635 36 9.51069 38.1187 12.6663 39.3496C18.3951 41.5843 22.3298 43.6708 27.245 46.6814C29.4289 48.019 31.7691 49.4524 34.4756 50.9984L35.5853 51.6319C49.7298 59.7067 67.6428 51.7416 67.7842 39.4819V36.9C67.7842 36.4029 68.1872 36 68.6842 36H81" stroke="url(#paint35_linear_29_5728)" stroke-width="0.9"/>
<path d="M0 36C4.23635 36 9.51069 38.1187 12.6663 39.3496C18.3951 41.5843 22.3298 43.6708 27.245 46.6814C29.4289 48.019 31.7691 49.4524 34.4756 50.9984L35.5853 51.6319C49.7298 59.7067 67.6428 51.7416 67.7842 39.4819V36.9C67.7842 36.4029 68.1872 36 68.6842 36H81" stroke="#01FF39" stroke-width="0.9"/>
</g>
<g clip-path="url(#clip4_29_5728)">
<rect width="71.9999" height="71.9999" transform="matrix(1 0 0 -1 72 72)" fill="#004520"/>
<path fill-rule="evenodd" clip-rule="evenodd" d="M72 43.9023L72 10.3491C74.1881 8.70773 76.5338 6.95651 79.2189 5.07744L80.3977 4.25299C95.4226 -6.25526 115.752 4.11011 115.902 20.0644C115.902 33.2297 104.317 43.9023 89.5609 43.9023H72Z" fill="url(#paint36_linear_29_5728)"/>
<path d="M127.851 20.8033C119.736 24.6815 108.591 28.0922 89.5605 28.0922V43.897H143.999V10.3438C143.845 10.4597 143.691 10.5752 143.538 10.6901C138.317 14.6079 133.936 17.8951 127.851 20.8033Z" fill="url(#paint37_linear_29_5728)"/>
<path d="M83.949 51.1914C80.597 49.5895 76.7281 48.0673 72 46.8324V28.0976H117.659C130.334 28.0976 141.337 35.972 144 46.5366C144 46.5366 144 50.0787 144 51.9356C143.85 67.8899 123.52 78.2553 108.495 67.747L107.317 66.9226C104.442 64.9107 101.956 63.0454 99.636 61.3046C94.4149 57.3867 90.0343 54.0996 83.949 51.1914Z" fill="url(#paint38_linear_29_5728)"/>
<path d="M83.9488 51.1914C81.4268 49.9861 78.6121 48.826 75.359 47.7994C73.6727 47.2672 71.9998 48.5599 71.9998 50.3282V52.2L69.2998 46.8324L71.9998 28.0976H117.658C130.333 28.0976 141.337 35.972 144 46.5366C144 46.5366 144 50.0787 144 51.9356C143.85 67.8899 123.52 78.2553 108.495 67.747L107.316 66.9226C104.441 64.9107 101.956 63.0454 99.6358 61.3046C94.4148 57.3867 90.0341 54.0996 83.9488 51.1914Z" fill="url(#paint39_linear_29_5728)"/>
<path d="M144 28.0709V46.8125C137.281 45.0576 128.828 43.8826 117.658 43.8826V28.0777H144V28.0709Z" fill="url(#paint40_linear_29_5728)"/>
<path d="M72 36C76.2363 36 81.5107 38.1187 84.6663 39.3496C90.3951 41.5843 94.3298 43.6708 99.245 46.6814C101.429 48.019 103.769 49.4524 106.476 50.9984L107.585 51.6319C121.73 59.7067 139.643 51.7416 139.784 39.4819V36.9C139.784 36.4029 140.187 36 140.684 36H153" stroke="url(#paint41_linear_29_5728)" stroke-width="0.9"/>
<path d="M72 36C76.2363 36 81.5107 38.1187 84.6663 39.3496C90.3951 41.5843 94.3298 43.6708 99.245 46.6814C101.429 48.019 103.769 49.4524 106.476 50.9984L107.585 51.6319C121.73 59.7067 139.643 51.7416 139.784 39.4819V36.9C139.784 36.4029 140.187 36 140.684 36H153" stroke="url(#paint42_linear_29_5728)" stroke-width="0.9"/>
<path d="M72 36C76.2363 36 81.5107 38.1187 84.6663 39.3496C90.3951 41.5843 94.3298 43.6708 99.245 46.6814C101.429 48.019 103.769 49.4524 106.476 50.9984L107.585 51.6319C121.73 59.7067 139.643 51.7416 139.784 39.4819V36.9C139.784 36.4029 140.187 36 140.684 36H153" stroke="url(#paint43_linear_29_5728)" stroke-width="0.9"/>
<path d="M72 36C76.2363 36 81.5107 38.1187 84.6663 39.3496C90.3951 41.5843 94.3298 43.6708 99.245 46.6814C101.429 48.019 103.769 49.4524 106.476 50.9984L107.585 51.6319C121.73 59.7067 139.643 51.7416 139.784 39.4819V36.9C139.784 36.4029 140.187 36 140.684 36H153" stroke="url(#paint44_linear_29_5728)" stroke-width="0.9"/>
<path d="M72 36C76.2363 36 81.5107 38.1187 84.6663 39.3496C90.3951 41.5843 94.3298 43.6708 99.245 46.6814C101.429 48.019 103.769 49.4524 106.476 50.9984L107.585 51.6319C121.73 59.7067 139.643 51.7416 139.784 39.4819V36.9C139.784 36.4029 140.187 36 140.684 36H153" stroke="#01FF39" stroke-width="0.9"/>
</g>
<g clip-path="url(#clip5_29_5728)">
<rect width="71.9999" height="71.9999" transform="matrix(1 0 0 -1 144 72)" fill="#004520"/>
<path fill-rule="evenodd" clip-rule="evenodd" d="M144 43.9023L144 10.3491C146.188 8.70773 148.534 6.95651 151.219 5.07744L152.398 4.25299C167.423 -6.25526 187.752 4.11011 187.902 20.0644C187.902 33.2297 176.317 43.9023 161.561 43.9023H144Z" fill="url(#paint45_linear_29_5728)"/>
<path d="M199.851 20.8033C191.736 24.6815 180.591 28.0922 161.561 28.0922V43.897H215.999V10.3438C215.845 10.4597 215.691 10.5752 215.538 10.6901C210.317 14.6079 205.936 17.8951 199.851 20.8033Z" fill="url(#paint46_linear_29_5728)"/>
<path d="M155.949 51.1914C152.597 49.5895 148.728 48.0673 144 46.8324V28.0976H189.659C202.334 28.0976 213.337 35.972 216 46.5366C216 46.5366 216 50.0787 216 51.9356C215.85 67.8899 195.52 78.2553 180.495 67.747L179.317 66.9226C176.442 64.9107 173.956 63.0454 171.636 61.3046C166.415 57.3867 162.034 54.0996 155.949 51.1914Z" fill="url(#paint47_linear_29_5728)"/>
<path d="M155.949 51.1914C153.427 49.9861 150.612 48.826 147.359 47.7994C145.673 47.2672 144 48.5599 144 50.3282V52.2L141.3 46.8324L144 28.0976H189.658C202.333 28.0976 213.337 35.972 216 46.5366C216 46.5366 216 50.0787 216 51.9356C215.85 67.8899 195.52 78.2553 180.495 67.747L179.316 66.9226C176.441 64.9107 173.956 63.0454 171.636 61.3046C166.415 57.3867 162.034 54.0996 155.949 51.1914Z" fill="url(#paint48_linear_29_5728)"/>
<path d="M216 28.0709V46.8125C209.281 45.0576 200.828 43.8826 189.658 43.8826V28.0777H216V28.0709Z" fill="url(#paint49_linear_29_5728)"/>
<path d="M144 36C148.236 36 153.511 38.1187 156.666 39.3496C162.395 41.5843 166.33 43.6708 171.245 46.6814C173.429 48.019 175.769 49.4524 178.476 50.9984L179.585 51.6319C193.73 59.7067 211.643 51.7416 211.784 39.4819V36.9C211.784 36.4029 212.187 36 212.684 36H225" stroke="url(#paint50_linear_29_5728)" stroke-width="0.9"/>
<path d="M144 36C148.236 36 153.511 38.1187 156.666 39.3496C162.395 41.5843 166.33 43.6708 171.245 46.6814C173.429 48.019 175.769 49.4524 178.476 50.9984L179.585 51.6319C193.73 59.7067 211.643 51.7416 211.784 39.4819V36.9C211.784 36.4029 212.187 36 212.684 36H225" stroke="url(#paint51_linear_29_5728)" stroke-width="0.9"/>
<path d="M144 36C148.236 36 153.511 38.1187 156.666 39.3496C162.395 41.5843 166.33 43.6708 171.245 46.6814C173.429 48.019 175.769 49.4524 178.476 50.9984L179.585 51.6319C193.73 59.7067 211.643 51.7416 211.784 39.4819V36.9C211.784 36.4029 212.187 36 212.684 36H225" stroke="url(#paint52_linear_29_5728)" stroke-width="0.9"/>
<path d="M144 36C148.236 36 153.511 38.1187 156.666 39.3496C162.395 41.5843 166.33 43.6708 171.245 46.6814C173.429 48.019 175.769 49.4524 178.476 50.9984L179.585 51.6319C193.73 59.7067 211.643 51.7416 211.784 39.4819V36.9C211.784 36.4029 212.187 36 212.684 36H225" stroke="url(#paint53_linear_29_5728)" stroke-width="0.9"/>
<path d="M144 36C148.236 36 153.511 38.1187 156.666 39.3496C162.395 41.5843 166.33 43.6708 171.245 46.6814C173.429 48.019 175.769 49.4524 178.476 50.9984L179.585 51.6319C193.73 59.7067 211.643 51.7416 211.784 39.4819V36.9C211.784 36.4029 212.187 36 212.684 36H225" stroke="#01FF39" stroke-width="0.9"/>
</g>
<g clip-path="url(#clip6_29_5728)">
<rect width="71.9999" height="71.9999" transform="matrix(1 0 0 -1 216 72)" fill="#004520"/>
<path fill-rule="evenodd" clip-rule="evenodd" d="M216 43.9023L216 10.3491C218.188 8.70773 220.534 6.95651 223.219 5.07744L224.398 4.25299C239.423 -6.25526 259.752 4.11011 259.902 20.0644C259.902 33.2297 248.317 43.9023 233.561 43.9023H216Z" fill="url(#paint54_linear_29_5728)"/>
<path d="M271.851 20.8033C263.736 24.6815 252.591 28.0922 233.561 28.0922V43.897H287.999V10.3438C287.845 10.4597 287.691 10.5752 287.538 10.6901C282.317 14.6079 277.936 17.8951 271.851 20.8033Z" fill="url(#paint55_linear_29_5728)"/>
<path d="M227.949 51.1914C224.597 49.5895 220.728 48.0673 216 46.8324V28.0976H261.659C274.334 28.0976 285.337 35.972 288 46.5366C288 46.5366 288 50.0787 288 51.9356C287.85 67.8899 267.52 78.2553 252.495 67.747L251.317 66.9226C248.442 64.9107 245.956 63.0454 243.636 61.3046C238.415 57.3867 234.034 54.0996 227.949 51.1914Z" fill="url(#paint56_linear_29_5728)"/>
<path d="M227.949 51.1914C225.427 49.9861 222.612 48.826 219.359 47.7994C217.673 47.2672 216 48.5599 216 50.3282V52.2L213.3 46.8324L216 28.0976H261.658C274.333 28.0976 285.337 35.972 288 46.5366C288 46.5366 288 50.0787 288 51.9356C287.85 67.8899 267.52 78.2553 252.495 67.747L251.316 66.9226C248.441 64.9107 245.956 63.0454 243.636 61.3046C238.415 57.3867 234.034 54.0996 227.949 51.1914Z" fill="url(#paint57_linear_29_5728)"/>
<path d="M288 28.0709V46.8125C281.281 45.0576 272.828 43.8826 261.658 43.8826V28.0777H288V28.0709Z" fill="url(#paint58_linear_29_5728)"/>
<path d="M216 36C220.236 36 225.511 38.1187 228.666 39.3496C234.395 41.5843 238.33 43.6708 243.245 46.6814C245.429 48.019 247.769 49.4524 250.476 50.9984L251.585 51.6319C265.73 59.7067 283.643 51.7416 283.784 39.4819V36.9C283.784 36.4029 284.187 36 284.684 36H297" stroke="url(#paint59_linear_29_5728)" stroke-width="0.9"/>
<path d="M216 36C220.236 36 225.511 38.1187 228.666 39.3496C234.395 41.5843 238.33 43.6708 243.245 46.6814C245.429 48.019 247.769 49.4524 250.476 50.9984L251.585 51.6319C265.73 59.7067 283.643 51.7416 283.784 39.4819V36.9C283.784 36.4029 284.187 36 284.684 36H297" stroke="url(#paint60_linear_29_5728)" stroke-width="0.9"/>
<path d="M216 36C220.236 36 225.511 38.1187 228.666 39.3496C234.395 41.5843 238.33 43.6708 243.245 46.6814C245.429 48.019 247.769 49.4524 250.476 50.9984L251.585 51.6319C265.73 59.7067 283.643 51.7416 283.784 39.4819V36.9C283.784 36.4029 284.187 36 284.684 36H297" stroke="url(#paint61_linear_29_5728)" stroke-width="0.9"/>
<path d="M216 36C220.236 36 225.511 38.1187 228.666 39.3496C234.395 41.5843 238.33 43.6708 243.245 46.6814C245.429 48.019 247.769 49.4524 250.476 50.9984L251.585 51.6319C265.73 59.7067 283.643 51.7416 283.784 39.4819V36.9C283.784 36.4029 284.187 36 284.684 36H297" stroke="url(#paint62_linear_29_5728)" stroke-width="0.9"/>
<path d="M216 36C220.236 36 225.511 38.1187 228.666 39.3496C234.395 41.5843 238.33 43.6708 243.245 46.6814C245.429 48.019 247.769 49.4524 250.476 50.9984L251.585 51.6319C265.73 59.7067 283.643 51.7416 283.784 39.4819V36.9C283.784 36.4029 284.187 36 284.684 36H297" stroke="#01FF39" stroke-width="0.9"/>
</g>
<g clip-path="url(#clip7_29_5728)">
<rect width="71.9999" height="71.9999" transform="matrix(1 0 0 -1 288 72)" fill="#004520"/>
<path fill-rule="evenodd" clip-rule="evenodd" d="M288 43.9023L288 10.3491C290.188 8.70773 292.534 6.95651 295.219 5.07744L296.398 4.25299C311.423 -6.25526 331.752 4.11011 331.902 20.0644C331.902 33.2297 320.317 43.9023 305.561 43.9023H288Z" fill="url(#paint63_linear_29_5728)"/>
<path d="M343.851 20.8033C335.736 24.6815 324.591 28.0922 305.561 28.0922V43.897H359.999V10.3438C359.845 10.4597 359.691 10.5752 359.538 10.6901C354.317 14.6079 349.936 17.8951 343.851 20.8033Z" fill="url(#paint64_linear_29_5728)"/>
<path d="M299.949 51.1914C296.597 49.5895 292.728 48.0673 288 46.8324V28.0976H333.659C346.334 28.0976 357.337 35.972 360 46.5366C360 46.5366 360 50.0787 360 51.9356C359.85 67.8899 339.52 78.2553 324.495 67.747L323.317 66.9226C320.442 64.9107 317.956 63.0454 315.636 61.3046C310.415 57.3867 306.034 54.0996 299.949 51.1914Z" fill="url(#paint65_linear_29_5728)"/>
<path d="M299.949 51.1914C297.427 49.9861 294.612 48.826 291.359 47.7994C289.673 47.2672 288 48.5599 288 50.3282V52.2L285.3 46.8324L288 28.0976H333.658C346.333 28.0976 357.337 35.972 360 46.5366C360 46.5366 360 50.0787 360 51.9356C359.85 67.8899 339.52 78.2553 324.495 67.747L323.316 66.9226C320.441 64.9107 317.956 63.0454 315.636 61.3046C310.415 57.3867 306.034 54.0996 299.949 51.1914Z" fill="url(#paint66_linear_29_5728)"/>
<path d="M360 28.0709V46.8125C353.281 45.0576 344.828 43.8826 333.658 43.8826V28.0777H360V28.0709Z" fill="url(#paint67_linear_29_5728)"/>
<path d="M288 36C292.236 36 297.511 38.1187 300.666 39.3496C306.395 41.5843 310.33 43.6708 315.245 46.6814C317.429 48.019 319.769 49.4524 322.476 50.9984L323.585 51.6319C337.73 59.7067 355.643 51.7416 355.784 39.4819V36.9C355.784 36.4029 356.187 36 356.684 36H369" stroke="url(#paint68_linear_29_5728)" stroke-width="0.9"/>
<path d="M288 36C292.236 36 297.511 38.1187 300.666 39.3496C306.395 41.5843 310.33 43.6708 315.245 46.6814C317.429 48.019 319.769 49.4524 322.476 50.9984L323.585 51.6319C337.73 59.7067 355.643 51.7416 355.784 39.4819V36.9C355.784 36.4029 356.187 36 356.684 36H369" stroke="url(#paint69_linear_29_5728)" stroke-width="0.9"/>
<path d="M288 36C292.236 36 297.511 38.1187 300.666 39.3496C306.395 41.5843 310.33 43.6708 315.245 46.6814C317.429 48.019 319.769 49.4524 322.476 50.9984L323.585 51.6319C337.73 59.7067 355.643 51.7416 355.784 39.4819V36.9C355.784 36.4029 356.187 36 356.684 36H369" stroke="url(#paint70_linear_29_5728)" stroke-width="0.9"/>
<path d="M288 36C292.236 36 297.511 38.1187 300.666 39.3496C306.395 41.5843 310.33 43.6708 315.245 46.6814C317.429 48.019 319.769 49.4524 322.476 50.9984L323.585 51.6319C337.73 59.7067 355.643 51.7416 355.784 39.4819V36.9C355.784 36.4029 356.187 36 356.684 36H369" stroke="url(#paint71_linear_29_5728)" stroke-width="0.9"/>
<path d="M288 36C292.236 36 297.511 38.1187 300.666 39.3496C306.395 41.5843 310.33 43.6708 315.245 46.6814C317.429 48.019 319.769 49.4524 322.476 50.9984L323.585 51.6319C337.73 59.7067 355.643 51.7416 355.784 39.4819V36.9C355.784 36.4029 356.187 36 356.684 36H369" stroke="#01FF39" stroke-width="0.9"/>
</g>
<g clip-path="url(#clip8_29_5728)">
<rect width="71.9999" height="71.9999" transform="matrix(1 0 0 -1 360 72)" fill="#004520"/>
<path fill-rule="evenodd" clip-rule="evenodd" d="M360 43.9023L360 10.3491C362.188 8.70773 364.534 6.95651 367.219 5.07744L368.398 4.25299C383.423 -6.25526 403.752 4.11011 403.902 20.0644C403.902 33.2297 392.317 43.9023 377.561 43.9023H360Z" fill="url(#paint72_linear_29_5728)"/>
<path d="M415.851 20.8033C407.736 24.6815 396.591 28.0922 377.561 28.0922V43.897H431.999V10.3438C431.845 10.4597 431.691 10.5752 431.538 10.6901C426.317 14.6079 421.936 17.8951 415.851 20.8033Z" fill="url(#paint73_linear_29_5728)"/>
<path d="M371.949 51.1914C368.597 49.5895 364.728 48.0673 360 46.8324V28.0976H405.659C418.334 28.0976 429.337 35.972 432 46.5366C432 46.5366 432 50.0787 432 51.9356C431.85 67.8899 411.52 78.2553 396.495 67.747L395.317 66.9226C392.442 64.9107 389.956 63.0454 387.636 61.3046C382.415 57.3867 378.034 54.0996 371.949 51.1914Z" fill="url(#paint74_linear_29_5728)"/>
<path d="M371.949 51.1914C369.427 49.9861 366.612 48.826 363.359 47.7994C361.673 47.2672 360 48.5599 360 50.3282V52.2L357.3 46.8324L360 28.0976H405.658C418.333 28.0976 429.337 35.972 432 46.5366C432 46.5366 432 50.0787 432 51.9356C431.85 67.8899 411.52 78.2553 396.495 67.747L395.316 66.9226C392.441 64.9107 389.956 63.0454 387.636 61.3046C382.415 57.3867 378.034 54.0996 371.949 51.1914Z" fill="url(#paint75_linear_29_5728)"/>
<path d="M432 28.0709V46.8125C425.281 45.0576 416.828 43.8826 405.658 43.8826V28.0777H432V28.0709Z" fill="url(#paint76_linear_29_5728)"/>
<path d="M360 36C364.236 36 369.511 38.1187 372.666 39.3496C378.395 41.5843 382.33 43.6708 387.245 46.6814C389.429 48.019 391.769 49.4524 394.476 50.9984L395.585 51.6319C409.73 59.7067 427.643 51.7416 427.784 39.4819V36.9C427.784 36.4029 428.187 36 428.684 36H441" stroke="url(#paint77_linear_29_5728)" stroke-width="0.9"/>
<path d="M360 36C364.236 36 369.511 38.1187 372.666 39.3496C378.395 41.5843 382.33 43.6708 387.245 46.6814C389.429 48.019 391.769 49.4524 394.476 50.9984L395.585 51.6319C409.73 59.7067 427.643 51.7416 427.784 39.4819V36.9C427.784 36.4029 428.187 36 428.684 36H441" stroke="url(#paint78_linear_29_5728)" stroke-width="0.9"/>
<path d="M360 36C364.236 36 369.511 38.1187 372.666 39.3496C378.395 41.5843 382.33 43.6708 387.245 46.6814C389.429 48.019 391.769 49.4524 394.476 50.9984L395.585 51.6319C409.73 59.7067 427.643 51.7416 427.784 39.4819V36.9C427.784 36.4029 428.187 36 428.684 36H441" stroke="url(#paint79_linear_29_5728)" stroke-width="0.9"/>
<path d="M360 36C364.236 36 369.511 38.1187 372.666 39.3496C378.395 41.5843 382.33 43.6708 387.245 46.6814C389.429 48.019 391.769 49.4524 394.476 50.9984L395.585 51.6319C409.73 59.7067 427.643 51.7416 427.784 39.4819V36.9C427.784 36.4029 428.187 36 428.684 36H441" stroke="url(#paint80_linear_29_5728)" stroke-width="0.9"/>
<path d="M360 36C364.236 36 369.511 38.1187 372.666 39.3496C378.395 41.5843 382.33 43.6708 387.245 46.6814C389.429 48.019 391.769 49.4524 394.476 50.9984L395.585 51.6319C409.73 59.7067 427.643 51.7416 427.784 39.4819V36.9C427.784 36.4029 428.187 36 428.684 36H441" stroke="#01FF39" stroke-width="0.9"/>
</g>
<rect width="144" height="18" transform="matrix(1 0 0 -1 0 90)" fill="url(#paint81_linear_29_5728)"/>
<rect width="144" height="18" transform="matrix(1 0 0 -1 144 90)" fill="url(#paint82_linear_29_5728)"/>
<rect width="144" height="18" transform="matrix(1 0 0 -1 288 90)" fill="url(#paint83_linear_29_5728)"/>
<g clip-path="url(#clip9_29_5728)">
<rect width="108" height="72" transform="translate(0 90)" fill="#743C3C"/>
<path fill-rule="evenodd" clip-rule="evenodd" d="M16.6276 97.0967C38.5215 79.4284 67.2768 97.2822 67.4987 122.867H67.5C67.5 122.891 67.5 122.915 67.5 122.939C67.4999 122.967 67.4998 122.995 67.4997 123.022C67.4999 123.07 67.4997 123.117 67.4997 123.165V131.836C67.4997 132.416 68.0421 132.845 68.6055 132.706C76.8383 130.669 83.3715 127.935 88.9369 124.866C97.8101 119.973 104.221 114.423 111.818 107.845C115.18 104.934 118.774 101.822 122.917 98.4773L122.92 98.475L124.628 97.0967C146.521 79.4284 175.277 97.2822 175.499 122.867H175.5C175.5 122.919 175.5 122.971 175.5 123.022C175.5 123.07 175.5 123.117 175.5 123.165H175.499C175.347 143.883 159.423 162 138.159 162H107.721V143.375C105.614 144.744 103.439 146.06 101.187 147.301C84.8442 156.313 64.2187 162 33.2469 162H31.5V161.992C31.0569 161.997 30.6098 162 30.1586 162H0V143.1C-2.10678 144.468 -4.56145 146.06 -6.81313 147.301C-23.1558 156.313 -43.7813 162 -74.7531 162H-76.5V136.409H-74.7531C-47.1168 136.409 -30.9006 131.393 -19.0631 124.866C-10.1899 119.973 -3.77909 114.422 3.81855 107.844C7.18024 104.934 10.7743 101.822 14.9168 98.4773L14.9196 98.475L16.6276 97.0967ZM38.3665 116.43C36.5312 115.451 34.519 115.479 32.5715 117.05L30.8664 118.426C28.136 120.631 25.3105 123.075 22.3527 125.634C18.9309 128.594 15.3312 131.708 11.4945 134.784C10.8261 135.319 11.2025 136.408 12.059 136.408H30.158C35.9346 136.408 41.9523 131.187 42.0334 123.033C41.9902 119.63 40.2625 117.441 38.3665 116.43ZM140.572 117.051C142.52 115.479 144.532 115.451 146.367 116.43C148.263 117.441 149.991 119.63 150.034 123.034C149.953 131.188 143.935 136.409 138.159 136.409H117.44C122.055 132.813 126.327 129.117 130.353 125.634C133.311 123.075 136.136 120.631 138.867 118.427L140.572 117.051Z" fill="url(#paint84_linear_29_5728)"/>
<path d="M-0.112305 132.44L26.92 110.044C29.092 108.292 31.7508 107.063 34.7666 106.812C37.7538 106.564 40.4337 107.33 42.6028 108.487C47.3513 111.02 50.9489 116.284 51.0346 123.019C50.9869 127.81 49.5803 132.264 47.2499 135.826M-0.112305 152.998L40.5006 152.879V152.885C66.1927 152.068 83.3286 146.87 96.8415 139.418C98.8856 138.291 100.876 137.088 102.819 135.826L107.167 133.002L111.909 129.307" stroke="#FFADD0" stroke-width="0.9" stroke-linecap="round"/>
</g>
<g clip-path="url(#clip10_29_5728)">
<rect width="108" height="72" transform="translate(108 90)" fill="#743C3C"/>
<path fill-rule="evenodd" clip-rule="evenodd" d="M124.628 97.0967C146.521 79.4284 175.277 97.2822 175.499 122.867H175.5C175.5 122.891 175.5 122.915 175.5 122.939C175.5 122.967 175.5 122.995 175.5 123.022C175.5 123.07 175.5 123.117 175.5 123.165V131.836C175.5 132.416 176.042 132.845 176.605 132.706C184.838 130.669 191.372 127.935 196.937 124.866C205.81 119.973 212.221 114.423 219.818 107.845C223.18 104.934 226.774 101.822 230.917 98.4773L230.92 98.475L232.628 97.0967C254.521 79.4284 283.277 97.2822 283.499 122.867H283.5C283.5 122.919 283.5 122.971 283.5 123.022C283.5 123.07 283.5 123.117 283.5 123.165H283.499C283.347 143.883 267.423 162 246.159 162H215.721V143.375C213.614 144.744 211.439 146.06 209.187 147.301C192.844 156.313 172.219 162 141.247 162H139.5V161.992C139.057 161.997 138.61 162 138.159 162H108V143.1C105.893 144.468 103.439 146.06 101.187 147.301C84.8442 156.313 64.2187 162 33.2469 162H31.5V136.409H33.2469C60.8832 136.409 77.0994 131.393 88.9369 124.866C97.8101 119.973 104.221 114.422 111.819 107.844C115.18 104.934 118.774 101.822 122.917 98.4773L122.92 98.475L124.628 97.0967ZM146.367 116.43C144.531 115.451 142.519 115.479 140.572 117.05L138.866 118.426C136.136 120.631 133.31 123.075 130.353 125.634C126.931 128.594 123.331 131.708 119.494 134.784C118.826 135.319 119.202 136.408 120.059 136.408H138.158C143.935 136.408 149.952 131.187 150.033 123.033C149.99 119.63 148.262 117.441 146.367 116.43ZM248.572 117.051C250.52 115.479 252.532 115.451 254.367 116.43C256.263 117.441 257.991 119.63 258.034 123.034C257.953 131.188 251.935 136.409 246.159 136.409H225.44C230.055 132.813 234.327 129.117 238.353 125.634C241.311 123.075 244.136 120.631 246.867 118.427L248.572 117.051Z" fill="url(#paint85_linear_29_5728)"/>
<path d="M107.888 132.44L134.92 110.044C137.092 108.292 139.751 107.063 142.767 106.812C145.754 106.564 148.434 107.33 150.603 108.487C155.351 111.02 158.949 116.284 159.035 123.019C158.987 127.81 157.58 132.264 155.25 135.826M107.888 152.998L148.501 152.879V152.885C174.193 152.068 191.329 146.87 204.842 139.418C206.886 138.291 208.876 137.088 210.819 135.826L215.167 133.002L219.909 129.307" stroke="#FFADD0" stroke-width="0.9" stroke-linecap="round"/>
</g>
<g clip-path="url(#clip11_29_5728)">
<rect width="108" height="72" transform="translate(216 90)" fill="#743C3C"/>
<path fill-rule="evenodd" clip-rule="evenodd" d="M232.628 97.0967C254.521 79.4284 283.277 97.2822 283.499 122.867H283.5C283.5 122.891 283.5 122.915 283.5 122.939C283.5 122.967 283.5 122.995 283.5 123.022C283.5 123.07 283.5 123.117 283.5 123.165V131.836C283.5 132.416 284.042 132.845 284.605 132.706C292.838 130.669 299.372 127.935 304.937 124.866C313.81 119.973 320.221 114.423 327.818 107.845C331.18 104.934 334.774 101.822 338.917 98.4773L338.92 98.475L340.628 97.0967C362.521 79.4284 391.277 97.2822 391.499 122.867H391.5C391.5 122.919 391.5 122.971 391.5 123.022C391.5 123.07 391.5 123.117 391.5 123.165H391.499C391.347 143.883 375.423 162 354.159 162H323.721V143.375C321.614 144.744 319.439 146.06 317.187 147.301C300.844 156.313 280.219 162 249.247 162H247.5V161.992C247.057 161.997 246.61 162 246.159 162H216V143.1C213.893 144.468 211.439 146.06 209.187 147.301C192.844 156.313 172.219 162 141.247 162H139.5V136.409H141.247C168.883 136.409 185.099 131.393 196.937 124.866C205.81 119.973 212.221 114.422 219.819 107.844C223.18 104.934 226.774 101.822 230.917 98.4773L230.92 98.475L232.628 97.0967ZM254.367 116.43C252.531 115.451 250.519 115.479 248.572 117.05L246.866 118.426C244.136 120.631 241.31 123.075 238.353 125.634C234.931 128.594 231.331 131.708 227.494 134.784C226.826 135.319 227.202 136.408 228.059 136.408H246.158C251.935 136.408 257.952 131.187 258.033 123.033C257.99 119.63 256.262 117.441 254.367 116.43ZM356.572 117.051C358.52 115.479 360.532 115.451 362.367 116.43C364.263 117.441 365.991 119.63 366.034 123.034C365.953 131.188 359.935 136.409 354.159 136.409H333.44C338.055 132.813 342.327 129.117 346.353 125.634C349.311 123.075 352.136 120.631 354.867 118.427L356.572 117.051Z" fill="url(#paint86_linear_29_5728)"/>
<path d="M215.888 132.44L242.92 110.044C245.092 108.292 247.751 107.063 250.767 106.812C253.754 106.564 256.434 107.33 258.603 108.487C263.351 111.02 266.949 116.284 267.035 123.019C266.987 127.81 265.58 132.264 263.25 135.826M215.888 152.998L256.501 152.879V152.885C282.193 152.068 299.329 146.87 312.842 139.418C314.886 138.291 316.876 137.088 318.819 135.826L323.167 133.002L327.909 129.307" stroke="#FFADD0" stroke-width="0.9" stroke-linecap="round"/>
</g>
<g clip-path="url(#clip12_29_5728)">
<rect width="108" height="72" transform="translate(324 90)" fill="#743C3C"/>
<path fill-rule="evenodd" clip-rule="evenodd" d="M340.628 97.0967C362.521 79.4284 391.277 97.2822 391.499 122.867H391.5C391.5 122.891 391.5 122.915 391.5 122.939C391.5 122.967 391.5 122.995 391.5 123.022C391.5 123.07 391.5 123.117 391.5 123.165V131.836C391.5 132.416 392.042 132.845 392.605 132.706C400.838 130.669 407.372 127.935 412.937 124.866C421.81 119.973 428.221 114.423 435.818 107.845C439.18 104.934 442.774 101.822 446.917 98.4773L446.92 98.475L448.628 97.0967C470.521 79.4284 499.277 97.2822 499.499 122.867H499.5C499.5 122.919 499.5 122.971 499.5 123.022C499.5 123.07 499.5 123.117 499.5 123.165H499.499C499.347 143.883 483.423 162 462.159 162H431.721V143.375C429.614 144.744 427.439 146.06 425.187 147.301C408.844 156.313 388.219 162 357.247 162H355.5V161.992C355.057 161.997 354.61 162 354.159 162H324V143.1C321.893 144.468 319.439 146.06 317.187 147.301C300.844 156.313 280.219 162 249.247 162H247.5V136.409H249.247C276.883 136.409 293.099 131.393 304.937 124.866C313.81 119.973 320.221 114.422 327.819 107.844C331.18 104.934 334.774 101.822 338.917 98.4773L338.92 98.475L340.628 97.0967ZM362.367 116.43C360.531 115.451 358.519 115.479 356.572 117.05L354.866 118.426C352.136 120.631 349.31 123.075 346.353 125.634C342.931 128.594 339.331 131.708 335.494 134.784C334.826 135.319 335.202 136.408 336.059 136.408H354.158C359.935 136.408 365.952 131.187 366.033 123.033C365.99 119.63 364.262 117.441 362.367 116.43ZM464.572 117.051C466.52 115.479 468.532 115.451 470.367 116.43C472.263 117.441 473.991 119.63 474.034 123.034C473.953 131.188 467.935 136.409 462.159 136.409H441.44C446.055 132.813 450.327 129.117 454.353 125.634C457.311 123.075 460.136 120.631 462.867 118.427L464.572 117.051Z" fill="url(#paint87_linear_29_5728)"/>
<path d="M323.888 132.44L350.92 110.044C353.092 108.292 355.751 107.063 358.767 106.812C361.754 106.564 364.434 107.33 366.603 108.487C371.351 111.02 374.949 116.284 375.035 123.019C374.987 127.81 373.58 132.264 371.25 135.826M323.888 152.998L364.501 152.879V152.885C390.193 152.068 407.329 146.87 420.842 139.418C422.886 138.291 424.876 137.088 426.819 135.826L431.167 133.002L435.909 129.307" stroke="#FFADD0" stroke-width="0.9" stroke-linecap="round"/>
</g>
<defs>
<linearGradient id="paint0_linear_29_5728" x1="104.015" y1="176.125" x2="72.3291" y2="176.125" gradientUnits="userSpaceOnUse">
<stop stop-color="#01FF39"/>
<stop offset="1" stop-color="#005A29"/>
</linearGradient>
<linearGradient id="paint1_linear_29_5728" x1="74.8956" y1="181.754" x2="43.21" y2="181.754" gradientUnits="userSpaceOnUse">
<stop stop-color="#01FF39"/>
<stop offset="1" stop-color="#005A29"/>
</linearGradient>
<linearGradient id="paint2_linear_29_5728" x1="45.7755" y1="187.395" x2="14.0898" y2="187.395" gradientUnits="userSpaceOnUse">
<stop stop-color="#01FF39"/>
<stop offset="1" stop-color="#005A29"/>
</linearGradient>
<linearGradient id="paint3_linear_29_5728" x1="31.9454" y1="176.125" x2="0.259766" y2="176.125" gradientUnits="userSpaceOnUse">
<stop stop-color="#01FF39"/>
<stop offset="1" stop-color="#005A29"/>
</linearGradient>
<linearGradient id="paint4_linear_29_5728" x1="61.0646" y1="170.484" x2="29.3789" y2="170.484" gradientUnits="userSpaceOnUse">
<stop stop-color="#01FF39"/>
<stop offset="1" stop-color="#005A29"/>
</linearGradient>
<linearGradient id="paint5_linear_29_5728" x1="133.133" y1="170.484" x2="101.447" y2="170.484" gradientUnits="userSpaceOnUse">
<stop stop-color="#01FF39"/>
<stop offset="1" stop-color="#005A29"/>
</linearGradient>
<linearGradient id="paint6_linear_29_5728" x1="117.844" y1="187.395" x2="86.1582" y2="187.395" gradientUnits="userSpaceOnUse">
<stop stop-color="#01FF39"/>
<stop offset="1" stop-color="#005A29"/>
</linearGradient>
<linearGradient id="paint7_linear_29_5728" x1="146.961" y1="181.754" x2="115.275" y2="181.754" gradientUnits="userSpaceOnUse">
<stop stop-color="#01FF39"/>
<stop offset="1" stop-color="#005A29"/>
</linearGradient>
<linearGradient id="paint8_linear_29_5728" x1="2.83217" y1="181.754" x2="-28.8535" y2="181.754" gradientUnits="userSpaceOnUse">
<stop stop-color="#01FF39"/>
<stop offset="1" stop-color="#005A29"/>
</linearGradient>
<linearGradient id="paint9_linear_29_5728" x1="248.015" y1="176.125" x2="216.329" y2="176.125" gradientUnits="userSpaceOnUse">
<stop stop-color="#01FF39"/>
<stop offset="1" stop-color="#005A29"/>
</linearGradient>
<linearGradient id="paint10_linear_29_5728" x1="218.896" y1="181.754" x2="187.21" y2="181.754" gradientUnits="userSpaceOnUse">
<stop stop-color="#01FF39"/>
<stop offset="1" stop-color="#005A29"/>
</linearGradient>
<linearGradient id="paint11_linear_29_5728" x1="189.776" y1="187.395" x2="158.09" y2="187.395" gradientUnits="userSpaceOnUse">
<stop stop-color="#01FF39"/>
<stop offset="1" stop-color="#005A29"/>
</linearGradient>
<linearGradient id="paint12_linear_29_5728" x1="175.945" y1="176.125" x2="144.26" y2="176.125" gradientUnits="userSpaceOnUse">
<stop stop-color="#01FF39"/>
<stop offset="1" stop-color="#005A29"/>
</linearGradient>
<linearGradient id="paint13_linear_29_5728" x1="205.065" y1="170.484" x2="173.379" y2="170.484" gradientUnits="userSpaceOnUse">
<stop stop-color="#01FF39"/>
<stop offset="1" stop-color="#005A29"/>
</linearGradient>
<linearGradient id="paint14_linear_29_5728" x1="277.133" y1="170.484" x2="245.447" y2="170.484" gradientUnits="userSpaceOnUse">
<stop stop-color="#01FF39"/>
<stop offset="1" stop-color="#005A29"/>
</linearGradient>
<linearGradient id="paint15_linear_29_5728" x1="261.844" y1="187.395" x2="230.158" y2="187.395" gradientUnits="userSpaceOnUse">
<stop stop-color="#01FF39"/>
<stop offset="1" stop-color="#005A29"/>
</linearGradient>
<linearGradient id="paint16_linear_29_5728" x1="290.961" y1="181.754" x2="259.275" y2="181.754" gradientUnits="userSpaceOnUse">
<stop stop-color="#01FF39"/>
<stop offset="1" stop-color="#005A29"/>
</linearGradient>
<linearGradient id="paint17_linear_29_5728" x1="146.832" y1="181.754" x2="115.146" y2="181.754" gradientUnits="userSpaceOnUse">
<stop stop-color="#01FF39"/>
<stop offset="1" stop-color="#005A29"/>
</linearGradient>
<linearGradient id="paint18_linear_29_5728" x1="392.015" y1="176.125" x2="360.329" y2="176.125" gradientUnits="userSpaceOnUse">
<stop stop-color="#01FF39"/>
<stop offset="1" stop-color="#005A29"/>
</linearGradient>
<linearGradient id="paint19_linear_29_5728" x1="362.896" y1="181.754" x2="331.21" y2="181.754" gradientUnits="userSpaceOnUse">
<stop stop-color="#01FF39"/>
<stop offset="1" stop-color="#005A29"/>
</linearGradient>
<linearGradient id="paint20_linear_29_5728" x1="333.776" y1="187.395" x2="302.09" y2="187.395" gradientUnits="userSpaceOnUse">
<stop stop-color="#01FF39"/>
<stop offset="1" stop-color="#005A29"/>
</linearGradient>
<linearGradient id="paint21_linear_29_5728" x1="319.945" y1="176.125" x2="288.26" y2="176.125" gradientUnits="userSpaceOnUse">
<stop stop-color="#01FF39"/>
<stop offset="1" stop-color="#005A29"/>
</linearGradient>
<linearGradient id="paint22_linear_29_5728" x1="349.065" y1="170.484" x2="317.379" y2="170.484" gradientUnits="userSpaceOnUse">
<stop stop-color="#01FF39"/>
<stop offset="1" stop-color="#005A29"/>
</linearGradient>
<linearGradient id="paint23_linear_29_5728" x1="421.133" y1="170.484" x2="389.447" y2="170.484" gradientUnits="userSpaceOnUse">
<stop stop-color="#01FF39"/>
<stop offset="1" stop-color="#005A29"/>
</linearGradient>
<linearGradient id="paint24_linear_29_5728" x1="405.844" y1="187.395" x2="374.158" y2="187.395" gradientUnits="userSpaceOnUse">
<stop stop-color="#01FF39"/>
<stop offset="1" stop-color="#005A29"/>
</linearGradient>
<linearGradient id="paint25_linear_29_5728" x1="434.961" y1="181.754" x2="403.275" y2="181.754" gradientUnits="userSpaceOnUse">
<stop stop-color="#01FF39"/>
<stop offset="1" stop-color="#005A29"/>
</linearGradient>
<linearGradient id="paint26_linear_29_5728" x1="290.832" y1="181.754" x2="259.146" y2="181.754" gradientUnits="userSpaceOnUse">
<stop stop-color="#01FF39"/>
<stop offset="1" stop-color="#005A29"/>
</linearGradient>
<linearGradient id="paint27_linear_29_5728" x1="-31.6097" y1="28.5365" x2="43.9024" y2="28.5365" gradientUnits="userSpaceOnUse">
<stop stop-color="#015F2A"/>
<stop offset="1" stop-color="#00FF38"/>
</linearGradient>
<linearGradient id="paint28_linear_29_5728" x1="39.6" y1="28.5358" x2="115.902" y2="28.5358" gradientUnits="userSpaceOnUse">
<stop stop-color="#015F2A"/>
<stop offset="1" stop-color="#01FF39"/>
</linearGradient>
<linearGradient id="paint29_linear_29_5728" x1="-3.39972e-06" y1="72" x2="-2.97216e-06" y2="46.5366" gradientUnits="userSpaceOnUse">
<stop stop-color="#01FF75"/>
<stop offset="1" stop-color="#00CE5F"/>
</linearGradient>
<linearGradient id="paint30_linear_29_5728" x1="-0.000195502" y1="72" x2="-0.000194761" y2="27.9" gradientUnits="userSpaceOnUse">
<stop stop-color="#00FF38"/>
<stop offset="1" stop-color="#015F2A"/>
</linearGradient>
<linearGradient id="paint31_linear_29_5728" x1="71.9996" y1="71.998" x2="71.9996" y2="27.8984" gradientUnits="userSpaceOnUse">
<stop stop-color="#01FF39"/>
<stop offset="1" stop-color="#015F2A"/>
</linearGradient>
<linearGradient id="paint32_linear_29_5728" x1="0" y1="54.9" x2="72.45" y2="54.9" gradientUnits="userSpaceOnUse">
<stop stop-color="#01FF76"/>
<stop offset="1" stop-color="#01FF76"/>
</linearGradient>
<linearGradient id="paint33_linear_29_5728" x1="0" y1="54.9" x2="72.45" y2="54.9" gradientUnits="userSpaceOnUse">
<stop stop-color="#01FF76"/>
<stop offset="1" stop-color="#01FF76"/>
</linearGradient>
<linearGradient id="paint34_linear_29_5728" x1="0" y1="54.9" x2="72.45" y2="54.9" gradientUnits="userSpaceOnUse">
<stop stop-color="#01FF76"/>
<stop offset="1" stop-color="#01FF76"/>
</linearGradient>
<linearGradient id="paint35_linear_29_5728" x1="0" y1="54.9" x2="72.45" y2="54.9" gradientUnits="userSpaceOnUse">
<stop stop-color="#01FF76"/>
<stop offset="1" stop-color="#01FF76"/>
</linearGradient>
<linearGradient id="paint36_linear_29_5728" x1="40.3903" y1="28.5365" x2="115.902" y2="28.5365" gradientUnits="userSpaceOnUse">
<stop stop-color="#015F2A"/>
<stop offset="1" stop-color="#00FF38"/>
</linearGradient>
<linearGradient id="paint37_linear_29_5728" x1="111.6" y1="28.5358" x2="187.902" y2="28.5358" gradientUnits="userSpaceOnUse">
<stop stop-color="#015F2A"/>
<stop offset="1" stop-color="#01FF39"/>
</linearGradient>
<linearGradient id="paint38_linear_29_5728" x1="72" y1="72" x2="72" y2="46.5366" gradientUnits="userSpaceOnUse">
<stop stop-color="#01FF75"/>
<stop offset="1" stop-color="#00CE5F"/>
</linearGradient>
<linearGradient id="paint39_linear_29_5728" x1="71.9998" y1="72" x2="71.9998" y2="27.9" gradientUnits="userSpaceOnUse">
<stop stop-color="#00FF38"/>
<stop offset="1" stop-color="#015F2A"/>
</linearGradient>
<linearGradient id="paint40_linear_29_5728" x1="144" y1="71.998" x2="144" y2="27.8984" gradientUnits="userSpaceOnUse">
<stop stop-color="#01FF39"/>
<stop offset="1" stop-color="#015F2A"/>
</linearGradient>
<linearGradient id="paint41_linear_29_5728" x1="72" y1="54.9" x2="144.45" y2="54.9" gradientUnits="userSpaceOnUse">
<stop stop-color="#01FF76"/>
<stop offset="1" stop-color="#01FF76"/>
</linearGradient>
<linearGradient id="paint42_linear_29_5728" x1="72" y1="54.9" x2="144.45" y2="54.9" gradientUnits="userSpaceOnUse">
<stop stop-color="#01FF76"/>
<stop offset="1" stop-color="#01FF76"/>
</linearGradient>
<linearGradient id="paint43_linear_29_5728" x1="72" y1="54.9" x2="144.45" y2="54.9" gradientUnits="userSpaceOnUse">
<stop stop-color="#01FF76"/>
<stop offset="1" stop-color="#01FF76"/>
</linearGradient>
<linearGradient id="paint44_linear_29_5728" x1="72" y1="54.9" x2="144.45" y2="54.9" gradientUnits="userSpaceOnUse">
<stop stop-color="#01FF76"/>
<stop offset="1" stop-color="#01FF76"/>
</linearGradient>
<linearGradient id="paint45_linear_29_5728" x1="112.39" y1="28.5365" x2="187.902" y2="28.5365" gradientUnits="userSpaceOnUse">
<stop stop-color="#015F2A"/>
<stop offset="1" stop-color="#00FF38"/>
</linearGradient>
<linearGradient id="paint46_linear_29_5728" x1="183.6" y1="28.5358" x2="259.902" y2="28.5358" gradientUnits="userSpaceOnUse">
<stop stop-color="#015F2A"/>
<stop offset="1" stop-color="#01FF39"/>
</linearGradient>
<linearGradient id="paint47_linear_29_5728" x1="144" y1="72" x2="144" y2="46.5366" gradientUnits="userSpaceOnUse">
<stop stop-color="#01FF75"/>
<stop offset="1" stop-color="#00CE5F"/>
</linearGradient>
<linearGradient id="paint48_linear_29_5728" x1="144" y1="72" x2="144" y2="27.9" gradientUnits="userSpaceOnUse">
<stop stop-color="#00FF38"/>
<stop offset="1" stop-color="#015F2A"/>
</linearGradient>
<linearGradient id="paint49_linear_29_5728" x1="216" y1="71.998" x2="216" y2="27.8984" gradientUnits="userSpaceOnUse">
<stop stop-color="#01FF39"/>
<stop offset="1" stop-color="#015F2A"/>
</linearGradient>
<linearGradient id="paint50_linear_29_5728" x1="144" y1="54.9" x2="216.45" y2="54.9" gradientUnits="userSpaceOnUse">
<stop stop-color="#01FF76"/>
<stop offset="1" stop-color="#01FF76"/>
</linearGradient>
<linearGradient id="paint51_linear_29_5728" x1="144" y1="54.9" x2="216.45" y2="54.9" gradientUnits="userSpaceOnUse">
<stop stop-color="#01FF76"/>
<stop offset="1" stop-color="#01FF76"/>
</linearGradient>
<linearGradient id="paint52_linear_29_5728" x1="144" y1="54.9" x2="216.45" y2="54.9" gradientUnits="userSpaceOnUse">
<stop stop-color="#01FF76"/>
<stop offset="1" stop-color="#01FF76"/>
</linearGradient>
<linearGradient id="paint53_linear_29_5728" x1="144" y1="54.9" x2="216.45" y2="54.9" gradientUnits="userSpaceOnUse">
<stop stop-color="#01FF76"/>
<stop offset="1" stop-color="#01FF76"/>
</linearGradient>
<linearGradient id="paint54_linear_29_5728" x1="184.39" y1="28.5365" x2="259.902" y2="28.5365" gradientUnits="userSpaceOnUse">
<stop stop-color="#015F2A"/>
<stop offset="1" stop-color="#00FF38"/>
</linearGradient>
<linearGradient id="paint55_linear_29_5728" x1="255.6" y1="28.5358" x2="331.902" y2="28.5358" gradientUnits="userSpaceOnUse">
<stop stop-color="#015F2A"/>
<stop offset="1" stop-color="#01FF39"/>
</linearGradient>
<linearGradient id="paint56_linear_29_5728" x1="216" y1="72" x2="216" y2="46.5366" gradientUnits="userSpaceOnUse">
<stop stop-color="#01FF75"/>
<stop offset="1" stop-color="#00CE5F"/>
</linearGradient>
<linearGradient id="paint57_linear_29_5728" x1="216" y1="72" x2="216" y2="27.9" gradientUnits="userSpaceOnUse">
<stop stop-color="#00FF38"/>
<stop offset="1" stop-color="#015F2A"/>
</linearGradient>
<linearGradient id="paint58_linear_29_5728" x1="288" y1="71.998" x2="288" y2="27.8984" gradientUnits="userSpaceOnUse">
<stop stop-color="#01FF39"/>
<stop offset="1" stop-color="#015F2A"/>
</linearGradient>
<linearGradient id="paint59_linear_29_5728" x1="216" y1="54.9" x2="288.45" y2="54.9" gradientUnits="userSpaceOnUse">
<stop stop-color="#01FF76"/>
<stop offset="1" stop-color="#01FF76"/>
</linearGradient>
<linearGradient id="paint60_linear_29_5728" x1="216" y1="54.9" x2="288.45" y2="54.9" gradientUnits="userSpaceOnUse">
<stop stop-color="#01FF76"/>
<stop offset="1" stop-color="#01FF76"/>
</linearGradient>
<linearGradient id="paint61_linear_29_5728" x1="216" y1="54.9" x2="288.45" y2="54.9" gradientUnits="userSpaceOnUse">
<stop stop-color="#01FF76"/>
<stop offset="1" stop-color="#01FF76"/>
</linearGradient>
<linearGradient id="paint62_linear_29_5728" x1="216" y1="54.9" x2="288.45" y2="54.9" gradientUnits="userSpaceOnUse">
<stop stop-color="#01FF76"/>
<stop offset="1" stop-color="#01FF76"/>
</linearGradient>
<linearGradient id="paint63_linear_29_5728" x1="256.39" y1="28.5365" x2="331.902" y2="28.5365" gradientUnits="userSpaceOnUse">
<stop stop-color="#015F2A"/>
<stop offset="1" stop-color="#00FF38"/>
</linearGradient>
<linearGradient id="paint64_linear_29_5728" x1="327.6" y1="28.5358" x2="403.902" y2="28.5358" gradientUnits="userSpaceOnUse">
<stop stop-color="#015F2A"/>
<stop offset="1" stop-color="#01FF39"/>
</linearGradient>
<linearGradient id="paint65_linear_29_5728" x1="288" y1="72" x2="288" y2="46.5366" gradientUnits="userSpaceOnUse">
<stop stop-color="#01FF75"/>
<stop offset="1" stop-color="#00CE5F"/>
</linearGradient>
<linearGradient id="paint66_linear_29_5728" x1="288" y1="72" x2="288" y2="27.9" gradientUnits="userSpaceOnUse">
<stop stop-color="#00FF38"/>
<stop offset="1" stop-color="#015F2A"/>
</linearGradient>
<linearGradient id="paint67_linear_29_5728" x1="360" y1="71.998" x2="360" y2="27.8984" gradientUnits="userSpaceOnUse">
<stop stop-color="#01FF39"/>
<stop offset="1" stop-color="#015F2A"/>
</linearGradient>
<linearGradient id="paint68_linear_29_5728" x1="288" y1="54.9" x2="360.45" y2="54.9" gradientUnits="userSpaceOnUse">
<stop stop-color="#01FF76"/>
<stop offset="1" stop-color="#01FF76"/>
</linearGradient>
<linearGradient id="paint69_linear_29_5728" x1="288" y1="54.9" x2="360.45" y2="54.9" gradientUnits="userSpaceOnUse">
<stop stop-color="#01FF76"/>
<stop offset="1" stop-color="#01FF76"/>
</linearGradient>
<linearGradient id="paint70_linear_29_5728" x1="288" y1="54.9" x2="360.45" y2="54.9" gradientUnits="userSpaceOnUse">
<stop stop-color="#01FF76"/>
<stop offset="1" stop-color="#01FF76"/>
</linearGradient>
<linearGradient id="paint71_linear_29_5728" x1="288" y1="54.9" x2="360.45" y2="54.9" gradientUnits="userSpaceOnUse">
<stop stop-color="#01FF76"/>
<stop offset="1" stop-color="#01FF76"/>
</linearGradient>
<linearGradient id="paint72_linear_29_5728" x1="328.39" y1="28.5365" x2="403.902" y2="28.5365" gradientUnits="userSpaceOnUse">
<stop stop-color="#015F2A"/>
<stop offset="1" stop-color="#00FF38"/>
</linearGradient>
<linearGradient id="paint73_linear_29_5728" x1="399.6" y1="28.5358" x2="475.902" y2="28.5358" gradientUnits="userSpaceOnUse">
<stop stop-color="#015F2A"/>
<stop offset="1" stop-color="#01FF39"/>
</linearGradient>
<linearGradient id="paint74_linear_29_5728" x1="360" y1="72" x2="360" y2="46.5366" gradientUnits="userSpaceOnUse">
<stop stop-color="#01FF75"/>
<stop offset="1" stop-color="#00CE5F"/>
</linearGradient>
<linearGradient id="paint75_linear_29_5728" x1="360" y1="72" x2="360" y2="27.9" gradientUnits="userSpaceOnUse">
<stop stop-color="#00FF38"/>
<stop offset="1" stop-color="#015F2A"/>
</linearGradient>
<linearGradient id="paint76_linear_29_5728" x1="432" y1="71.998" x2="432" y2="27.8984" gradientUnits="userSpaceOnUse">
<stop stop-color="#01FF39"/>
<stop offset="1" stop-color="#015F2A"/>
</linearGradient>
<linearGradient id="paint77_linear_29_5728" x1="360" y1="54.9" x2="432.45" y2="54.9" gradientUnits="userSpaceOnUse">
<stop stop-color="#01FF76"/>
<stop offset="1" stop-color="#01FF76"/>
</linearGradient>
<linearGradient id="paint78_linear_29_5728" x1="360" y1="54.9" x2="432.45" y2="54.9" gradientUnits="userSpaceOnUse">
<stop stop-color="#01FF76"/>
<stop offset="1" stop-color="#01FF76"/>
</linearGradient>
<linearGradient id="paint79_linear_29_5728" x1="360" y1="54.9" x2="432.45" y2="54.9" gradientUnits="userSpaceOnUse">
<stop stop-color="#01FF76"/>
<stop offset="1" stop-color="#01FF76"/>
</linearGradient>
<linearGradient id="paint80_linear_29_5728" x1="360" y1="54.9" x2="432.45" y2="54.9" gradientUnits="userSpaceOnUse">
<stop stop-color="#01FF76"/>
<stop offset="1" stop-color="#01FF76"/>
</linearGradient>
<linearGradient id="paint81_linear_29_5728" x1="72" y1="0" x2="72" y2="18" gradientUnits="userSpaceOnUse">
<stop stop-color="#FFB800"/>
<stop offset="1" stop-color="#FFF500"/>
</linearGradient>
<linearGradient id="paint82_linear_29_5728" x1="72" y1="0" x2="72" y2="18" gradientUnits="userSpaceOnUse">
<stop stop-color="#FFB800"/>
<stop offset="1" stop-color="#FFF500"/>
</linearGradient>
<linearGradient id="paint83_linear_29_5728" x1="72" y1="0" x2="72" y2="18" gradientUnits="userSpaceOnUse">
<stop stop-color="#FFB800"/>
<stop offset="1" stop-color="#FFF500"/>
</linearGradient>
<linearGradient id="paint84_linear_29_5728" x1="84.0837" y1="90" x2="84.0837" y2="162" gradientUnits="userSpaceOnUse">
<stop stop-color="#FFADD0"/>
<stop offset="1" stop-color="#FF5674"/>
</linearGradient>
<linearGradient id="paint85_linear_29_5728" x1="192.084" y1="90" x2="192.084" y2="162" gradientUnits="userSpaceOnUse">
<stop stop-color="#FFADD0"/>
<stop offset="1" stop-color="#FF5674"/>
</linearGradient>
<linearGradient id="paint86_linear_29_5728" x1="300.084" y1="90" x2="300.084" y2="162" gradientUnits="userSpaceOnUse">
<stop stop-color="#FFADD0"/>
<stop offset="1" stop-color="#FF5674"/>
</linearGradient>
<linearGradient id="paint87_linear_29_5728" x1="408.084" y1="90" x2="408.084" y2="162" gradientUnits="userSpaceOnUse">
<stop stop-color="#FFADD0"/>
<stop offset="1" stop-color="#FF5674"/>
</linearGradient>
<clipPath id="clip0_29_5728">
<rect width="144" height="36" fill="white" transform="translate(0 162)"/>
</clipPath>
<clipPath id="clip1_29_5728">
<rect width="144" height="36" fill="white" transform="translate(144 162)"/>
</clipPath>
<clipPath id="clip2_29_5728">
<rect width="144" height="36" fill="white" transform="translate(288 162)"/>
</clipPath>
<clipPath id="clip3_29_5728">
<rect width="72" height="71.9999" fill="white"/>
</clipPath>
<clipPath id="clip4_29_5728">
<rect width="72" height="71.9999" fill="white" transform="translate(72)"/>
</clipPath>
<clipPath id="clip5_29_5728">
<rect width="72" height="71.9999" fill="white" transform="translate(144)"/>
</clipPath>
<clipPath id="clip6_29_5728">
<rect width="72" height="71.9999" fill="white" transform="translate(216)"/>
</clipPath>
<clipPath id="clip7_29_5728">
<rect width="72" height="71.9999" fill="white" transform="translate(288)"/>
</clipPath>
<clipPath id="clip8_29_5728">
<rect width="72" height="71.9999" fill="white" transform="translate(360)"/>
</clipPath>
<clipPath id="clip9_29_5728">
<rect width="108" height="72" fill="white" transform="translate(0 90)"/>
</clipPath>
<clipPath id="clip10_29_5728">
<rect width="108" height="72" fill="white" transform="translate(108 90)"/>
</clipPath>
<clipPath id="clip11_29_5728">
<rect width="108" height="72" fill="white" transform="translate(216 90)"/>
</clipPath>
<clipPath id="clip12_29_5728">
<rect width="108" height="72" fill="white" transform="translate(324 90)"/>
</clipPath>
</defs>
</svg>
